<?xml version="1.0" encoding="utf-8"?>
<!-- Generator: Adobe Illustrator 22.1.0, SVG Export Plug-In . SVG Version: 6.00 Build 0)  -->
<svg version="1.1" xmlns="http://www.w3.org/2000/svg" xmlns:xlink="http://www.w3.org/1999/xlink" x="0px" y="0px"
	 viewBox="0 0 1047 1047" style="enable-background:new 0 0 1047 1047;" xml:space="preserve">
<style type="text/css">
	.st0{fill:#FDF5F5;}
	.st1{fill:url(#SVGID_1_);}
	.st2{fill:url(#SVGID_2_);}
	.st3{fill:url(#SVGID_3_);}
	.st4{fill:url(#SVGID_4_);}
	.st5{fill:url(#SVGID_5_);}
	.st6{fill:url(#SVGID_6_);}
	.st7{fill:#D78BA1;}
	.st8{fill:#BF8BA1;}
	.st9{fill:url(#SVGID_7_);}
	.st10{fill:url(#SVGID_8_);}
	.st11{fill:url(#SVGID_9_);}
	.st12{fill:url(#SVGID_10_);}
	.st13{fill:url(#SVGID_11_);}
	.st14{fill:url(#SVGID_12_);}
	.st15{fill:url(#SVGID_13_);}
	.st16{fill:url(#SVGID_14_);}
	.st17{fill:url(#SVGID_15_);}
	.st18{fill:url(#SVGID_16_);}
	.st19{fill:url(#SVGID_17_);}
	.st20{fill:url(#SVGID_18_);}
	.st21{fill:url(#SVGID_19_);}
	.st22{fill:#79466D;}
	.st23{opacity:0.26;fill:#79466D;}
	.st24{fill:#975988;}
	.st25{opacity:0.26;}
	.st26{fill:#42210B;stroke:#42210B;stroke-miterlimit:10;}
	.st27{fill:#42210B;}
	.st28{fill:none;stroke:#42210B;stroke-width:7;stroke-linecap:round;stroke-linejoin:round;stroke-miterlimit:10;}
	.st29{fill:none;stroke:#000000;stroke-width:2;stroke-miterlimit:10;}
	.st30{fill:none;stroke:#42210B;stroke-width:2;stroke-linecap:round;stroke-linejoin:round;stroke-miterlimit:10;}
	.st31{fill:none;stroke:#42210B;stroke-width:3;stroke-linecap:round;stroke-linejoin:round;stroke-miterlimit:10;}
	.st32{fill:none;stroke:#42210B;stroke-width:5;stroke-linecap:round;stroke-linejoin:round;stroke-miterlimit:10;}
	.st33{fill:none;stroke:#42210B;stroke-linecap:round;stroke-linejoin:round;stroke-miterlimit:10;}
</style>
<g id="BG">
	<g>
		<circle class="st0" cx="523.5" cy="523.5" r="523.5"/>
	</g>
</g>
<g id="Color">
	<linearGradient id="SVGID_1_" gradientUnits="userSpaceOnUse" x1="606.2477" y1="619.2763" x2="600.9144" y2="701.2763">
		<stop  offset="2.682927e-02" style="stop-color:#9A4D7A"/>
		<stop  offset="0.1951" style="stop-color:#AB678E"/>
		<stop  offset="0.5317" style="stop-color:#CA97B2"/>
		<stop  offset="0.6988" style="stop-color:#B7788F"/>
		<stop  offset="0.7927" style="stop-color:#AB647A"/>
		<stop  offset="0.8265" style="stop-color:#A55C7A"/>
		<stop  offset="0.8998" style="stop-color:#9D517A"/>
		<stop  offset="0.978" style="stop-color:#9A4D7A"/>
	</linearGradient>
	<polygon class="st1" points="614.1,796.1 585.8,784.4 585.8,635.3 613.1,645.8 	"/>
	<linearGradient id="SVGID_2_" gradientUnits="userSpaceOnUse" x1="591.8311" y1="660.3797" x2="664.4977" y2="541.713">
		<stop  offset="2.682927e-02" style="stop-color:#9A4D7A"/>
		<stop  offset="0.1951" style="stop-color:#AB678E"/>
		<stop  offset="0.5317" style="stop-color:#CA97B2"/>
		<stop  offset="0.6988" style="stop-color:#B7788F"/>
		<stop  offset="0.7927" style="stop-color:#AB647A"/>
		<stop  offset="0.8265" style="stop-color:#A55C7A"/>
		<stop  offset="0.8998" style="stop-color:#9D517A"/>
		<stop  offset="0.978" style="stop-color:#9A4D7A"/>
	</linearGradient>
	<polygon class="st2" points="739.2,443.4 721.5,483.5 613.1,645.8 585.8,635.3 709.5,462.5 736.8,443.1 	"/>
	<linearGradient id="SVGID_3_" gradientUnits="userSpaceOnUse" x1="618.3596" y1="405.1931" x2="383.6929" y2="331.1931">
		<stop  offset="2.682927e-02" style="stop-color:#9A4D7A"/>
		<stop  offset="0.1951" style="stop-color:#AB678E"/>
		<stop  offset="0.5317" style="stop-color:#CA97B2"/>
		<stop  offset="0.6988" style="stop-color:#B7788F"/>
		<stop  offset="0.7927" style="stop-color:#AB647A"/>
		<stop  offset="0.8265" style="stop-color:#A55C7A"/>
		<stop  offset="0.8998" style="stop-color:#9D517A"/>
		<stop  offset="0.978" style="stop-color:#9A4D7A"/>
	</linearGradient>
	<path class="st3" d="M705.6,427.6c-3,2.1-6.9,4.8-11.2,7.5c-1.8,1.1-3.6,2.3-5.5,3.4l-10.3-1l-381-116.9l23.3-24.1l333.4,103.4
		c8.9,6.8,19.8,14.4,33.3,20.6C692.5,422.8,698.5,425.2,705.6,427.6z"/>
	<linearGradient id="SVGID_4_" gradientUnits="userSpaceOnUse" x1="847.8405" y1="515.1999" x2="919.1739" y2="543.1999">
		<stop  offset="2.682927e-02" style="stop-color:#9A4D7A"/>
		<stop  offset="0.1951" style="stop-color:#AB678E"/>
		<stop  offset="0.5317" style="stop-color:#CA97B2"/>
		<stop  offset="0.6988" style="stop-color:#B7788F"/>
		<stop  offset="0.7927" style="stop-color:#AB647A"/>
		<stop  offset="0.8265" style="stop-color:#A55C7A"/>
		<stop  offset="0.8998" style="stop-color:#9D517A"/>
		<stop  offset="0.978" style="stop-color:#9A4D7A"/>
	</linearGradient>
	<path class="st4" d="M921.5,577.3l-19,31l-8.6-113.4l-22-7.5c1.4-2.1-1.4-4.9-1.4-4.9l-23-20c0,0-6.3-4.2-14.2-9.1c1,0,2,0,3,0
		l75,15.1L921.5,577.3z"/>
	<linearGradient id="SVGID_5_" gradientUnits="userSpaceOnUse" x1="758.99" y1="457.11" x2="827.5" y2="457.11">
		<stop  offset="0" style="stop-color:#CA97B2"/>
		<stop  offset="0.2111" style="stop-color:#BE839C"/>
		<stop  offset="0.4633" style="stop-color:#B37289"/>
		<stop  offset="0.7232" style="stop-color:#AD677E"/>
		<stop  offset="1" style="stop-color:#AB647A"/>
	</linearGradient>
	<path class="st5" d="M827.5,473.2l-56-19.1c-4.4-4.9-8.9-9.5-12.5-13.1c4.6,1.5,19.4,6.1,34.9,9.4c8.4,3.3,15.8,6.4,18.6,8.1
		C817.2,461.4,823.3,468.2,827.5,473.2z"/>
	<linearGradient id="SVGID_6_" gradientUnits="userSpaceOnUse" x1="756.51" y1="397.92" x2="845.73" y2="397.92">
		<stop  offset="2.682927e-02" style="stop-color:#9A4D7A"/>
		<stop  offset="0.1951" style="stop-color:#AB678E"/>
		<stop  offset="0.5317" style="stop-color:#CA97B2"/>
		<stop  offset="0.6988" style="stop-color:#B7788F"/>
		<stop  offset="0.7927" style="stop-color:#AB647A"/>
		<stop  offset="0.8265" style="stop-color:#A55C7A"/>
		<stop  offset="0.8998" style="stop-color:#9D517A"/>
		<stop  offset="0.978" style="stop-color:#9A4D7A"/>
	</linearGradient>
	<polyline class="st6" points="756.9,423.2 809.4,358.5 845.7,370 779.5,428.5 756.5,437.3 	"/>
	<polygon class="st7" points="614,646 755,701 750,853 614,796 	"/>
	<polygon class="st7" points="155,469 586,635 585.3,781.7 183,617 	"/>
	<polygon class="st8" points="755,701 891,500 899,608 749,853 	"/>
	<polygon class="st7" points="390,226 810,359 776.1,399.6 713,380 698,359 673,362 668,366 656,359 647,356 639,357 431,292 
		415,292 402,297 384.6,316.3 321,297 	"/>
	<polyline class="st8" points="851.4,456.4 839.7,454.1 869,450 889,444 891,439 869,416 854,423 840,429 840,419 802.9,407.8 
		846,368 951,404 908.4,469 921,577 958,515 952,404 911,469 	"/>
	<polygon class="st7" points="298,321 360,340 277,429 280,441 345,467 632.1,570.6 586,635 155,469 	"/>
	<polygon class="st7" points="614,646 658,579.7 690,592 710,595 731,584 776,515 784,531 798,542 827,547 824,540 833,537 810,524 
		797,504 792,492 808.8,468.5 830,473 840,484 849,493 869,489 890,494.6 752,699.5 	"/>
	<radialGradient id="SVGID_7_" cx="747.3333" cy="428.3333" r="29.044" gradientUnits="userSpaceOnUse">
		<stop  offset="0" style="stop-color:#CA97B2"/>
		<stop  offset="1.519090e-02" style="stop-color:#C690AA"/>
		<stop  offset="7.833028e-02" style="stop-color:#B77890"/>
		<stop  offset="0.1346" style="stop-color:#AE6980"/>
		<stop  offset="0.178" style="stop-color:#AB647A"/>
		<stop  offset="0.2288" style="stop-color:#A55C7A"/>
		<stop  offset="0.3387" style="stop-color:#9D517A"/>
		<stop  offset="0.4561" style="stop-color:#9A4D7A"/>
	</radialGradient>
	<path class="st9" d="M761.5,429.5l-5.3,8.3l-0.3,0.1l-12.2,4.3l-0.9,0.3l-6.4-1.7l1.6-5.8l0.5-1.6c0,0,0.5-2.7,0.4-5.7
		c0-1.5-0.1-3-0.4-4.3c0-0.1,0-0.2,0-0.2c-0.5-2.7,2.7-4.5,4.7-5.3c0.8-0.3,1.4-0.5,1.4-0.5l5,6l7.4-0.3L761.5,429.5z"/>
	<linearGradient id="SVGID_8_" gradientUnits="userSpaceOnUse" x1="719.2452" y1="395.3906" x2="752.5786" y2="423.3906">
		<stop  offset="2.682927e-02" style="stop-color:#9A4D7A"/>
		<stop  offset="0.1951" style="stop-color:#AB678E"/>
		<stop  offset="0.5317" style="stop-color:#CA97B2"/>
		<stop  offset="0.6988" style="stop-color:#B7788F"/>
		<stop  offset="0.7927" style="stop-color:#AB647A"/>
		<stop  offset="0.8265" style="stop-color:#A55C7A"/>
		<stop  offset="0.8998" style="stop-color:#9D517A"/>
		<stop  offset="0.978" style="stop-color:#9A4D7A"/>
	</linearGradient>
	<path class="st10" d="M738.5,423.3c-0.3,0.1-0.6,0.2-1,0.2l-1-3c0,0-5.4-3.8-13.5-9.5c-9.8-7-23.6-16.7-36.2-25.8
		c-0.8-0.6-1.6-1.2-2.5-1.8c-1.6-1.2-3.2-2.3-4.7-3.4c-0.4-0.3-0.8-0.5-1.1-0.8c-1.9-1.4-3.7-2.6-5.3-3.8c-2.5-1.8-4.8-3.5-6.8-5
		c-0.1-0.7,0-1.3,0.1-1.9c1.2-4.2,8.1-6.5,15.2-7.9c7.2-1.4,14.6-1.8,16.8-2.1c0,0,4.7,8.5,5,9c6.7,12,35.3,41.2,39.6,50.5
		C741.2,418.8,738,420.5,738.5,423.3z"/>
	<linearGradient id="SVGID_9_" gradientUnits="userSpaceOnUse" x1="622.3107" y1="396.3678" x2="738.9402" y2="396.3678">
		<stop  offset="2.682927e-02" style="stop-color:#9A4D7A"/>
		<stop  offset="0.1951" style="stop-color:#AB678E"/>
		<stop  offset="0.5317" style="stop-color:#CA97B2"/>
		<stop  offset="0.6988" style="stop-color:#B7788F"/>
		<stop  offset="0.7927" style="stop-color:#AB647A"/>
		<stop  offset="0.8265" style="stop-color:#A55C7A"/>
		<stop  offset="0.8998" style="stop-color:#9D517A"/>
		<stop  offset="0.978" style="stop-color:#9A4D7A"/>
	</linearGradient>
	<path class="st11" d="M738.9,427.8c0,3-0.4,5.7-0.4,5.7l-2,3c-4-0.6-19.7-5.6-22.9-6.5c-2.8-0.8-5.5-1.6-8.1-2.5
		c-7.1-2.3-13.1-4.8-18.1-7.1c-13.5-6.2-24.3-13.7-33.3-20.6c-6.9-5.3-12.7-10.1-17.7-13.4c-9-6-14-13-14-13s-2-5,7-12s17-5,17-5
		s2-1,9.2,5.6c1.4,1.3,5.3,4.3,10.7,8.3c2.1,1.5,4.4,3.2,6.8,5c1.7,1.3,3.5,2.5,5.3,3.8c0.4,0.3,0.8,0.5,1.1,0.8
		c1.5,1.1,3.1,2.3,4.7,3.4c0.8,0.6,1.6,1.2,2.5,1.8c12.6,9,26.4,18.8,36.2,25.8c8,5.7,13.5,9.5,13.5,9.5L738.9,427.8z"/>
	<linearGradient id="SVGID_10_" gradientUnits="userSpaceOnUse" x1="760.1526" y1="418.9035" x2="796.8193" y2="426.2368">
		<stop  offset="2.682927e-02" style="stop-color:#9A4D7A"/>
		<stop  offset="0.1951" style="stop-color:#AB678E"/>
		<stop  offset="0.5317" style="stop-color:#CA97B2"/>
		<stop  offset="0.6988" style="stop-color:#B7788F"/>
		<stop  offset="0.7927" style="stop-color:#AB647A"/>
		<stop  offset="0.8265" style="stop-color:#A55C7A"/>
		<stop  offset="0.8998" style="stop-color:#9D517A"/>
		<stop  offset="0.978" style="stop-color:#9A4D7A"/>
	</linearGradient>
	<path class="st12" d="M889.5,443.5c-3,1-15,8-28,9c-6,0.5-16.6,0.9-28.1,0.9c-1,0-2,0-3,0c0,0,0,0,0,0c-12.8-0.1-26.3-0.9-35.8-2.9
		c-0.2,0-0.4-0.1-0.6-0.1c-18.8-4-36.4-9.9-36.4-9.9l0.8-2.2l0.3-0.9l2.8-7.8c0,0,38,2,45,2s31-1,42-5s19-9,19-9s2-3,5,0
		s17,21,17,21S892.5,442.5,889.5,443.5z"/>
	<linearGradient id="SVGID_11_" gradientUnits="userSpaceOnUse" x1="793.93" y1="472.4955" x2="869.2767" y2="472.4955">
		<stop  offset="2.682927e-02" style="stop-color:#9A4D7A"/>
		<stop  offset="7.478258e-02" style="stop-color:#AB678E"/>
		<stop  offset="0.1707" style="stop-color:#CA97B2"/>
		<stop  offset="0.3003" style="stop-color:#B7788F"/>
		<stop  offset="0.3732" style="stop-color:#AB647A"/>
		<stop  offset="0.4835" style="stop-color:#A55C7A"/>
		<stop  offset="0.7228" style="stop-color:#9D517A"/>
		<stop  offset="0.978" style="stop-color:#9A4D7A"/>
	</linearGradient>
	<path class="st13" d="M868.9,487.4c-0.3,0.4-0.7,0.8-1.4,1.1c-4,2-13,6-13,6s-3,1-9-3s-13-12-13-12s-2-2.7-5-6.3
		c-4.2-5.1-10.3-11.8-15-14.7c-2.8-1.7-10.2-4.8-18.6-8.1c0.2,0,0.4,0.1,0.6,0.1c9.5,2,23.1,2.8,35.8,2.9c0,0,0,0,0,0
		c7.8,5,14.2,9.1,14.2,9.1l23,20C867.5,482.5,870.3,485.3,868.9,487.4z"/>
	<linearGradient id="SVGID_12_" gradientUnits="userSpaceOnUse" x1="756.5156" y1="448.0217" x2="793.1823" y2="508.6884">
		<stop  offset="2.682927e-02" style="stop-color:#9A4D7A"/>
		<stop  offset="0.1951" style="stop-color:#AB678E"/>
		<stop  offset="0.5317" style="stop-color:#CA97B2"/>
		<stop  offset="0.6988" style="stop-color:#B7788F"/>
		<stop  offset="0.7927" style="stop-color:#AB647A"/>
		<stop  offset="0.8265" style="stop-color:#A55C7A"/>
		<stop  offset="0.8998" style="stop-color:#9D517A"/>
		<stop  offset="0.978" style="stop-color:#9A4D7A"/>
	</linearGradient>
	<path class="st14" d="M823.5,539.5l4.1,7.9c-1.3-0.3-5.7-1-18.7-2.7c-24.5-3.2-32.5-27.2-32.5-27.2s-5-25-6-35
		c-0.8-7.7-12-25.8-12-25.8l-14.8-14.5l12.2-4.3c0,0,0.1,0.1,0.2,0.1c0.5,0.5,1.1,1.1,1.7,1.7c0.4,0.4,0.8,0.8,1.2,1.2h0
		c3.7,3.6,8.2,8.2,12.5,13.1c6.9,7.7,13.4,16.3,15.8,22.8c5.8,15.9,11.5,39,23.1,47.6c11.2,8.4,22.4,12.7,23.1,13L823.5,539.5z"/>
	<linearGradient id="SVGID_13_" gradientUnits="userSpaceOnUse" x1="713.6268" y1="402.4431" x2="680.9601" y2="433.1097">
		<stop  offset="2.682927e-02" style="stop-color:#9A4D7A"/>
		<stop  offset="0.1256" style="stop-color:#9F5480"/>
		<stop  offset="0.2723" style="stop-color:#AC688F"/>
		<stop  offset="0.4481" style="stop-color:#C189A8"/>
		<stop  offset="0.5122" style="stop-color:#CA97B2"/>
		<stop  offset="0.5572" style="stop-color:#C289A3"/>
		<stop  offset="0.6416" style="stop-color:#B5758C"/>
		<stop  offset="0.7217" style="stop-color:#AE687F"/>
		<stop  offset="0.7927" style="stop-color:#AB647A"/>
		<stop  offset="0.8265" style="stop-color:#A55C7A"/>
		<stop  offset="0.8998" style="stop-color:#9D517A"/>
		<stop  offset="0.978" style="stop-color:#9A4D7A"/>
	</linearGradient>
	<path class="st15" d="M731.5,436.5c-1.5,1.6-29.5,17.4-36.4,21.3c-16.6,9.4-32.8,13.1-64.5,20.2c-13.3,3-24.3,5-31.6,6.3l6.3-13.9
		l-8.8-8.8l20.2-1.3c0,0,30.4-6.3,49.3-11.4c7.1-1.9,27.7-11.3,29.5-12.4c4.3-2.7,11-5.9,14-8c2.5,0.8,1.3,0.7,4.1,1.5
		C716.8,430.9,730.6,436.3,731.5,436.5z"/>
	<linearGradient id="SVGID_14_" gradientUnits="userSpaceOnUse" x1="277" y1="455.5" x2="737" y2="455.5">
		<stop  offset="0.1024" style="stop-color:#CCE0F4"/>
		<stop  offset="0.2561" style="stop-color:#C9DFF3"/>
		<stop  offset="0.3306" style="stop-color:#BBD8EF"/>
		<stop  offset="0.4709" style="stop-color:#96C6E6"/>
		<stop  offset="0.543" style="stop-color:#81BCE0"/>
		<stop  offset="0.8603" style="stop-color:#A1E2E0"/>
		<stop  offset="0.9944" style="stop-color:#A1E2E0"/>
	</linearGradient>
	<polygon class="st16" points="277,429 360,340 649.2,428.5 688.8,438.5 673,448 632.1,457.1 596,463 605,469 600,484 655.7,473.2 
		695,457 733,436 734,437 737,437 735,441 736,442 718.1,456.4 709,462 632,571 277,441 	"/>
	<linearGradient id="SVGID_15_" gradientUnits="userSpaceOnUse" x1="656" y1="519" x2="775" y2="519">
		<stop  offset="0.1024" style="stop-color:#CCE0F4"/>
		<stop  offset="0.2561" style="stop-color:#C9DFF3"/>
		<stop  offset="0.3306" style="stop-color:#BBD8EF"/>
		<stop  offset="0.4709" style="stop-color:#96C6E6"/>
		<stop  offset="0.543" style="stop-color:#81BCE0"/>
		<stop  offset="0.8603" style="stop-color:#A1E2E0"/>
		<stop  offset="0.9944" style="stop-color:#A1E2E0"/>
	</linearGradient>
	<polygon class="st17" points="656,580 721,484 738,443 744,443.5 758,456 768.4,478 775,515 727,584 712.4,593.2 694,595 	"/>
	<linearGradient id="SVGID_16_" gradientUnits="userSpaceOnUse" x1="779" y1="419.0167" x2="840" y2="419.0167">
		<stop  offset="0.1024" style="stop-color:#CCE0F4"/>
		<stop  offset="0.2561" style="stop-color:#C9DFF3"/>
		<stop  offset="0.3306" style="stop-color:#BBD8EF"/>
		<stop  offset="0.4709" style="stop-color:#96C6E6"/>
		<stop  offset="0.543" style="stop-color:#81BCE0"/>
		<stop  offset="0.8603" style="stop-color:#A1E2E0"/>
		<stop  offset="0.9944" style="stop-color:#A1E2E0"/>
	</linearGradient>
	<polygon class="st18" points="779,428 804.4,407 836.8,418.5 840,424.9 838,428 836.5,429.3 783.9,431.1 	"/>
	<linearGradient id="SVGID_17_" gradientUnits="userSpaceOnUse" x1="714.2474" y1="402.0446" x2="776" y2="402.0446">
		<stop  offset="0.1024" style="stop-color:#CCE0F4"/>
		<stop  offset="0.2561" style="stop-color:#C9DFF3"/>
		<stop  offset="0.3306" style="stop-color:#BBD8EF"/>
		<stop  offset="0.4709" style="stop-color:#96C6E6"/>
		<stop  offset="0.543" style="stop-color:#81BCE0"/>
		<stop  offset="0.8603" style="stop-color:#A1E2E0"/>
		<stop  offset="0.9944" style="stop-color:#A1E2E0"/>
	</linearGradient>
	<polygon class="st19" points="716.5,381.1 776,400 757,423 752,422 750,423 749,420.7 746.3,419.6 744,416 741.7,416.2 
		714.2,382.4 	"/>
	<linearGradient id="SVGID_18_" gradientUnits="userSpaceOnUse" x1="386.4174" y1="344.96" x2="650.2094" y2="344.96">
		<stop  offset="0.1024" style="stop-color:#CCE0F4"/>
		<stop  offset="0.2561" style="stop-color:#C9DFF3"/>
		<stop  offset="0.3306" style="stop-color:#BBD8EF"/>
		<stop  offset="0.4709" style="stop-color:#96C6E6"/>
		<stop  offset="0.543" style="stop-color:#81BCE0"/>
		<stop  offset="0.8603" style="stop-color:#A1E2E0"/>
		<stop  offset="0.9944" style="stop-color:#A1E2E0"/>
	</linearGradient>
	<polygon class="st20" points="386.4,314.2 403.3,296.5 421.5,292 440,294.8 509,316.4 618.4,350.7 636.6,356.2 632.1,359.7 
		624.9,366 622,373 629.5,379.9 647.4,394.6 650.2,397.9 640.3,396.4 520.7,358.5 	"/>
	<linearGradient id="SVGID_19_" gradientUnits="userSpaceOnUse" x1="773" y1="473.3704" x2="809.71" y2="473.3704">
		<stop  offset="0.1024" style="stop-color:#CCE0F4"/>
		<stop  offset="0.2561" style="stop-color:#C9DFF3"/>
		<stop  offset="0.3306" style="stop-color:#BBD8EF"/>
		<stop  offset="0.4709" style="stop-color:#96C6E6"/>
		<stop  offset="0.543" style="stop-color:#81BCE0"/>
		<stop  offset="0.8603" style="stop-color:#A1E2E0"/>
		<stop  offset="0.9944" style="stop-color:#A1E2E0"/>
	</linearGradient>
	<path class="st21" d="M773,456c1,0,36.7,12.7,36.7,12.7l-16.5,22l-1.9-3.1L787,475l-9.6-13.4L773,456z"/>
	<polygon class="st22" points="739,440 740,437 741,436 740,438 740,440 	"/>
	<polygon class="st22" points="741,440 743,436 745,432 744,436 743,439 742,440 	"/>
	<path class="st23" d="M738,433c0,0-1-3-5-6s-16-9-16-9l-7-4l16,6l8,4l3.7,0.4L738,433z"/>
	<polygon class="st22" points="735,446 723,472 731,453 717,476 729,454 708,484 723,457 712,464 	"/>
</g>
<g id="Shadows">
	<path class="st24" d="M747,422c0,0,0,0.1,0,0.3c0,0.4,0,1,0,1.7c0,1-1,3-1,3l-1,2l1-1l3-2l2-1l2-1l-4,1l0,0v-1L747,422"/>
	<polygon class="st22" points="737.9,429 688,405 737,432 724,428 737,437 	"/>
	<polygon class="st23" points="760,423 770,411 766,419 782,405 771,422 781,416 769,426 776,423 770,428 760.4,428 	"/>
	<path class="st23" d="M765,436l13,4c4,0.7,8,1.3,12,2c2.3-0.1,4-0.6,5-1c0.8-0.3,1.2-0.6,1.4-1.1c0.7-1.3-0.4-2.9-0.4-2.9
		c-3.3-0.3-6.7-0.7-10-1C779,436,772,436,765,436z"/>
	<g class="st25">
		<path class="st22" d="M745.1,439.8c3.9,0.7,7.7,1.9,11.3,3.9c0.9,0.5,1.7,1,2.6,1.7c0.9,0.7,1.6,1.4,2.2,2.2
			c1.4,1.5,2.6,3,3.9,4.5c2.5,3,5.4,5.6,7.5,9.3c0.1,0.2,0.3,0.5,0.4,0.7c0.1,0.3,0.3,0.5,0.3,0.8l0.5,1.4c0.3,1,0.7,1.9,0.9,2.9
			c0.6,1.9,1.1,3.8,1.3,5.9l-0.4,0.2c-1.3-1.6-2.5-3.2-3.5-4.8c-0.6-0.8-1-1.7-1.5-2.5l-0.7-1.3c-0.1-0.2-0.2-0.4-0.3-0.6l-0.4-0.5
			c-1.1-1.4-2.3-3-3.4-4.6c-1.1-1.6-2.2-3.3-3.3-4.9c-1.1-1.6-2.3-3.2-3.4-4.7c-0.6-0.8-1.2-1.5-1.8-2.1c-0.6-0.6-1.4-1.2-2.1-1.7
			c-3.1-2.2-6.7-3.8-10.3-5.2L745.1,439.8z"/>
	</g>
	<g class="st25">
		<path class="st22" d="M734.6,445.6l-9.8,15.6l-9.9,15.5c-3.3,5.2-6.4,10.5-10,15.4c-3.6,5-7.3,9.9-11.4,14.5l-0.2-0.2
			c2.7-5.5,5.9-10.8,9.1-16c3.2-5.2,7-10.1,10.5-15.1l10.6-15l10.7-14.9L734.6,445.6z"/>
	</g>
</g>
<g id="Outline">
	<path class="st26" d="M749.5,852.5"/>
	<g>
		<path class="st27" d="M956.8,401.6l-50,75.6l-50.1,75.3L756.8,702l0,0c-0.7,1.1-2.1,1.5-3.2,1l-141.3-55.1l0,0
			c-1.2-0.5-1.8-1.8-1.3-3c0.1-0.2,0.1-0.3,0.2-0.4l54.4-81.1l54.3-81.1l-0.2,0.3l17.7-40.1l1.7,2.9l-2.4-0.2l1.4-0.4l-27.3,19.4
			l0.5-0.5l-123.4,173c-0.6,0.9-1.8,1.2-2.8,0.8l0,0L477.1,596l-107.9-41.4l-54-20.7l-54-20.5l-108.1-41c-2.1-0.8-3.2-3.2-2.4-5.3
			c0.2-0.5,0.5-1,0.9-1.4l0,0l58.5-61l58.6-60.9L385.9,222c1.4-1.4,3.4-1.9,5.1-1.3l0,0l141.7,44.7l141.7,45.2L815.8,356
			L956.8,401.6z M946.2,405.4l-140-43.4l-139.6-43.5l-139.3-43.8L388,230.3l5.2-1.3L275.4,350.3l-58.9,60.6l-59,60.5l-1.5-6.7
			L263.6,507l53.8,21.2l53.8,21l107.7,42l107.8,41.9l-2.8,0.8l123.9-172.6c0.1-0.2,0.3-0.3,0.5-0.5l27.3-19.4
			c0.4-0.3,0.9-0.4,1.4-0.4l2.4,0.2c1.1,0.1,1.9,1.1,1.8,2.2c0,0.2-0.1,0.4-0.2,0.6l-17.7,40.1c0,0.1-0.1,0.2-0.2,0.3L669,565.8
			L615,647.1l-1.1-3.4L755.5,698l-3.2,1l97-147.5l48.4-73.2L946.2,405.4z"/>
	</g>
	<path class="st28" d="M995.5,358.5"/>
	<g>
		<path class="st27" d="M159,467.7L185.1,616l-1.6-2l567,236.1l-3.5,2.3l2.7-152.1c0-2.7,2.3-4.8,5-4.8c2.7,0,4.8,2.3,4.8,5
			c0,0,0,0.1,0,0.1L752,852.6l0,0c-0.1,1.4-1.3,2.5-2.7,2.4c-0.3,0-0.6-0.1-0.9-0.2L181.5,619c-0.8-0.4-1.4-1.1-1.6-1.9l0-0.1
			L150,469.3c-0.5-2.5,1.1-4.9,3.6-5.4s4.9,1.1,5.4,3.6C159,467.6,159,467.6,159,467.7z"/>
	</g>
	<g>
		<path class="st27" d="M953.6,403.4l8.4,109.9c0.1,0.7-0.1,1.4-0.5,2l0,0L751.2,853.5c-0.6,0.9-1.8,1.2-2.8,0.6
			c-0.9-0.6-1.2-1.8-0.7-2.7l207.7-339.8l-0.5,2.1l-5.6-110.1c-0.1-1.2,0.8-2.1,2-2.2C952.5,401.4,953.5,402.2,953.6,403.4z"/>
	</g>
	<g>
		<path class="st27" d="M810.8,469.6l-18.2,24.1c-0.5,0.6-1.3,0.7-1.9,0.3c-0.6-0.4-0.7-1.2-0.3-1.8l16.3-25.4
			c0.7-1.2,2.3-1.5,3.5-0.8c1.2,0.7,1.5,2.3,0.8,3.5C810.8,469.5,810.8,469.5,810.8,469.6z"/>
	</g>
	<path class="st29" d="M657.2,579.7l32.3,11.8c2.6,1.2,11.8,5.1,23,2c8.7-2.4,13.9-7.7,16-10c15.9-22.7,31.7-45.4,47.6-68.2"/>
	<path class="st29" d="M361.7,340.3c-26.1,27.4-52.2,54.8-78.2,82.2c-0.4,0.2-4,4-6,10c-1.4,4.2,2.1,8.7,6,11l348.6,127.1"/>
	<path class="st29" d="M802.9,407.8c7.2,2.2,14.4,4.5,21.6,6.7c1.9,0.5,4.8,1.4,8,3c4.1,2,6.3,3.1,7,5c0.8,2.1-0.7,4-3,6.8"/>
	<path class="st29" d="M668,366c-4.1-1.3-8.3-2.6-12.4-3.8"/>
	<path class="st29" d="M776.2,399.5c-21.1-6.6-42.3-13.1-63.4-19.7"/>
	<path class="st29" d="M384.6,316.3c5.6-5.9,11.3-11.9,16.9-17.8c3.3-2,9.5-5.1,18-6c8-0.8,14.5,0.8,18,2
		c67.1,20.8,134.1,41.6,201.2,62.4"/>
	<path class="st28" d="M421.5,296.5"/>
	<g>
		<path class="st27" d="M706.7,427.4c-1.2,1-2.5,2.2-3.8,3.3c-1.3,1.2-2.7,2.4-4.2,3.6c-1.4,1.2-3.1,2.5-4.4,3.4l-4.1,2.9l-0.2,0.2
			c-0.4,0.3-0.9,0.3-1.3,0.2c-1.7-0.6-3.4-1-5.1-1.3c-1.7-0.3-3.4-0.6-5.1-0.7c-0.1,0-0.2,0-0.3-0.1l0,0l-47.7-14.4l-23.8-7.2
			l-23.9-7.1l-95.5-28.5l-47.7-14.4c-15.9-4.8-31.8-9.5-47.7-14.5c-15.9-4.9-31.8-9.7-47.6-14.7c-15.9-4.9-31.7-9.9-47.5-15l-0.1,0
			c-1.3-0.4-2-1.8-1.6-3.1c0.1-0.4,0.3-0.7,0.6-1l0,0l22.3-25c0.9-1,2.3-1.4,3.6-1.1l0.3,0.1l0,0l20.7,6.7l20.8,6.7l41.6,13.3
			l83.2,26.3l83.2,26.3l83.3,26.2l0,0c0.2,0.1,0.4,0.2,0.5,0.3l0,0c7.6,6,15.6,11.6,24,16.3c4.2,2.4,8.6,4.5,13,6.4
			c2.2,1,4.5,1.9,6.7,2.8c1.1,0.4,2.3,0.9,3.4,1.3l1.7,0.6l0.4,0.2c0.2,0.1,0.5,0.2,0.8,0.3C705.9,426.7,706.4,427.1,706.7,427.4z
			 M704.5,427.7c-0.3,0.1-0.4,0.3-0.5,0.4c0,0-0.1,0.1-0.1,0l-0.4-0.1l-1.7-0.6c-1.2-0.4-2.3-0.8-3.5-1.2c-2.3-0.8-4.6-1.7-6.9-2.7
			c-4.6-1.9-9-3.9-13.4-6.3c-8.7-4.6-16.9-10.1-24.8-16l0,0l0.5,0.3l-83.4-25.6l-83.5-25.4l-83.5-25.4l-41.8-12.6l-20.9-6.3
			l-20.9-6.2l0,0l3.9-1l-24.3,23.2l0,0l-1.1-4.1c15.9,4.6,31.9,9.4,47.7,14.2c15.9,4.7,31.8,9.7,47.6,14.5
			c15.9,4.8,31.7,9.8,47.6,14.8l47.5,14.9l95,29.9l23.8,7.5l23.8,7.4l47.6,14.8l-0.3-0.1c1.7,0.2,3.5,0.3,5.2,0.3
			c1.7,0,3.5-0.1,5.3-0.3l-1.5,0.3l4.4-2.3l1.1-0.6c0.4-0.2,0.6-0.4,1-0.5c0.6-0.3,1.3-0.7,1.9-1c1.3-0.7,2.6-1.3,4.1-2
			C701.4,429.3,703,428.6,704.5,427.7z"/>
	</g>
	<g>
		<path class="st27" d="M615.3,797.9c-4.9-1.7-10-3.4-15.1-5.3c-5.1-1.9-10.3-3.9-15.3-5.9c-0.9-0.4-1.5-1.3-1.5-2.2l0,0
			c-0.1-6.2,0-12.4,0-18.6c0-6.2,0-12.4,0-18.6c0.2-6.2,0.8-12.4,0.7-18.6l-0.1-18.6l-0.2-37.3l-0.3-37.3c0-1.3,1-2.3,2.3-2.3
			c0.3,0,0.6,0,0.8,0.1l0.1,0l27.4,10.1c1.1,0.4,1.7,1.4,1.7,2.5l0,0c0.1,25.4,0.1,50.9-0.1,76.3L615.3,797.9z M612.9,794.4
			l-1.5-74.6c-0.5-24.7-0.8-49.3-1.1-74l1.7,2.5L585,637.4l3.1-2.1l-0.3,37.3l-0.2,37.3l-0.1,18.6c-0.1,6.2,0.6,12.4,0.7,18.6
			c0.1,6.2,0,12.4,0,18.6c0,6.2,0,12.4,0,18.6l-1.5-2.3c4.4,1.9,8.7,3.8,13,5.8L612.9,794.4z"/>
	</g>
	<g>
		<path class="st27" d="M741,442.3l-8.3,21c-2.9,7.1-5.9,14.2-9,21.2c-0.1,0.1-0.1,0.2-0.2,0.3l0,0c-9,13.6-18.1,27.1-27.1,40.6
			c-4.5,6.8-9.5,13.2-14.2,19.9c-2.3,3.3-4.5,6.8-6.7,10.2l-6.6,10.2c-8.8,13.7-17.5,27.5-26.2,41.2l-13.2,20.6
			c-2.4,3.3-5.1,6.3-7.8,9.4l-1,1.2c-0.3,0.4-0.8,0.7-1.1,1.1c-0.4,0.4-0.6,0.8-0.8,1.3c-0.2,0.4-0.5,0.9-0.7,1.4
			c-0.4,0.9-0.8,1.9-1.2,2.9c-0.4,0.9-1,1.8-1.5,2.6c-0.7,1.1-2,1.6-3.2,1.1l-0.2-0.1c-4.6-1.6-9.2-3.2-13.8-4.9
			c-2.3-0.8-4.6-1.6-6.9-2.5l-6.8-2.6c-1.8-0.7-2.7-2.7-2-4.5c0.1-0.3,0.3-0.6,0.4-0.8l0,0c5.2-7.2,10.4-14.3,15.9-21.3
			c5.5-7,11-13.9,16.4-20.9c5.3-7.1,10.5-14.2,15.6-21.5c5.1-7.3,10.1-14.6,15.1-21.9c5-7.3,10-14.6,15.2-21.8
			c5-7.3,11-13.9,16.2-21.1c5.2-7.1,10.4-14.4,15.5-21.6c5.2-7.2,10.3-14.4,15.7-21.4l0-0.1c0.1-0.1,0.2-0.2,0.3-0.2l3.5-2.3
			l1.7-1.2c0.3-0.2,0.6-0.4,1-0.4c0.4-0.1,0.7-0.2,1-0.4l6.6-5.1c2.2-1.7,4.4-3.4,6.6-5.2c2.2-1.7,4.4-3.5,6.5-5.3
			c0.3-0.3,0.7-0.4,1.1-0.4l0.2,0c0.7,0,1.4,0.1,2.1,0.3C739.8,441.8,740.5,442.1,741,442.3z M737.4,444.4c-0.2,0.2-0.4,0.4-0.5,0.5
			c-0.1,0.1-0.2,0.1-0.3,0.1l1.3-0.3c-2.4,1.5-4.8,2.9-7.1,4.4c-2.4,1.5-4.7,3-7.1,4.5l-7,4.6c-0.3,0.2-0.5,0.5-0.7,0.8
			c-0.2,0.4-0.5,0.6-0.7,0.8l-1.7,1.3l-3.3,2.5l0.3-0.3c-5,7.3-10.1,14.5-15.2,21.8c-5.2,7.2-10.4,14.4-15.4,21.6
			c-5.1,7.2-9.5,15-14.8,22.1c-5.2,7.2-10.4,14.3-15.8,21.4c-5.3,7.1-10.6,14.2-15.9,21.3c-5.2,7.1-10.4,14.4-15.3,21.7
			c-4.9,7.3-9.7,14.9-14.5,22.3c-4.8,7.4-9.9,14.7-15,21.9l-1.6-5.3l6.8,2.7c2.3,0.9,4.5,1.8,6.8,2.8c4.5,1.8,9,3.8,13.5,5.7
			l-3.4,1.1c0.6-0.8,1.2-1.7,1.9-2.4c0.7-0.8,1.5-1.5,2.2-2.2c0.4-0.4,0.7-0.7,1-1.1c0.3-0.4,0.7-0.8,0.9-1.3c0.2-0.5,0.4-1,0.6-1.4
			l0.7-1.4c1.8-3.7,3.6-7.3,5.7-10.8l14-20c9.4-13.3,18.8-26.6,28-39.9l6.9-10c2.3-3.3,4.6-6.7,6.8-10.1c4.4-6.9,8.4-14,12.9-20.7
			c9.1-13.5,18-27.1,27.1-40.6l-0.2,0.4c2.9-6.4,5.7-12.6,8.8-18.9L737.4,444.4z"/>
	</g>
	<path class="st30" d="M918.5,577.3l-19,31l-8.6-113.4l-22-7.5c1.4-2.1-1.4-4.9-1.4-4.9l-23-20c0,0-6.3-4.2-14.2-9.1c1,0,2,0,3,0
		l75,15.1L918.5,577.3z"/>
	<path class="st30" d="M827.5,473.2l-56-19.1c-4.4-4.9-8.9-9.5-12.5-13.1c4.6,1.5,19.4,6.1,34.9,9.4c8.4,3.3,15.8,6.4,18.6,8.1
		C817.2,461.4,823.3,468.2,827.5,473.2z"/>
	<polyline class="st31" points="756.9,423.2 809.4,358.5 845.7,370 779.5,428.5 756.5,437.3 	"/>
	<polyline class="st32" points="743,442.6 740.5,443.5 741.6,442.2 	"/>
	<g>
		<path class="st27" d="M763.2,429.4c-1.5,3.1-3.1,6.4-4.9,9.7c-0.2,0.4-0.6,0.7-0.9,0.9l-0.3,0.1l0,0l-13.7,3.9l-0.2,0.1
			c-0.3,0.1-0.6,0.1-0.8,0l0,0l-6.3-2l-0.1,0c-0.7-0.2-1.1-1-0.8-1.6c0,0,0,0,0,0l0,0c0.2-0.6,0.4-1.2,0.6-1.8
			c0.2-0.6,0.4-1.2,0.6-1.8c0.4-1.2,0.7-2.4,1.1-3.7l0,0.1c0.2-1.5,0.3-3.1,0.3-4.7c0-1.6-0.2-3.1-0.6-4.5c0-0.2-0.1-0.3-0.2-0.7
			c0-0.3-0.1-0.6-0.1-0.9c0-0.6,0.1-1.3,0.3-1.8c0.4-1.2,1.2-2,1.9-2.7c1.5-1.4,3-2.2,4.8-3l0,0l1.1-0.1c0.6,0,1.2,0.3,1.5,0.8
			l3.7,7.1l0,0l-0.7-0.3l7.4-1.9l0,0c0.8-0.2,1.6,0.2,2,0.9l0.1,0.2C760.6,424.4,762,427,763.2,429.4z M759.8,429.6
			c-1.8-1.8-3.4-3.3-4.9-4.9l2.1,1l0,0l-7.5-1.4l-0.4-0.1c-0.1,0-0.2-0.1-0.3-0.2l0,0l-6.3-4.9l2.6,0.8l0,0
			c-1.3,0.2-2.8,0.6-3.8,1.3c-0.5,0.3-0.9,0.7-1.1,1c-0.1,0.2-0.2,0.3-0.2,0.5c0,0.1,0,0.2,0,0.3c0,0,0,0.3,0.1,0.5
			c0.3,1.8,0.2,3.5,0.1,5.2c-0.1,1.7-0.3,3.3-0.6,5c0,0,0,0.1,0,0.1c-0.4,1.2-0.7,2.4-1,3.7c-0.2,0.6-0.3,1.2-0.5,1.8
			c-0.2,0.6-0.3,1.2-0.4,1.9l0,0l-1-1.7l6.5,1.4l0,0l-1,0l13.1-5.4l0,0l-1.3,1C755.8,434.3,757.7,432,759.8,429.6z"/>
	</g>
	<g>
		<path class="st27" d="M739.3,423.8c-0.5,0.3-1.1,0.5-1.6,0.6l0,0c-0.4,0.1-0.8-0.2-1-0.6l-0.9-3l0.3,0.4c-2.9-2.1-5.8-4.2-8.8-6.3
			l-8.9-6.1c-5.9-4-11.9-8.1-17.8-12.1c-6-4-11.9-8-17.9-12l-4.4-3l-4.4-3.1l-8.8-6.2c-0.5-0.4-0.8-0.9-0.9-1.5l0-0.2
			c-0.4-2.3,0.6-4.8,2-6.2c1.4-1.5,3-2.4,4.5-3.2c3.1-1.5,6.2-2.3,9.3-3c3.1-0.7,6.2-1.1,9.3-1.5c1.5-0.2,3.1-0.3,4.6-0.5l2.3-0.2
			c0.7-0.1,1.5-0.1,2.1-0.2l0.1,0c1.1-0.2,2.1,0.4,2.6,1.3l4.4,8.2c0.4,0.7,0.7,1.3,1.1,2c0.4,0.6,0.7,1.3,1.2,1.9l1.3,1.9
			c0.4,0.6,0.9,1.2,1.3,1.9c3.6,4.9,7.6,9.7,11.5,14.5c3.9,4.8,7.9,9.6,11.8,14.5c2,2.4,3.9,4.9,5.7,7.4c0.9,1.3,1.8,2.6,2.7,3.9
			l1.3,2l1.1,2.2c0.3,0.5,0.1,1.2-0.5,1.5c0,0-0.1,0-0.1,0.1l0,0c-1.1,0.4-2.2,1-3,1.6c-0.4,0.3-0.7,0.7-1,1.1
			c-0.1,0.2-0.2,0.4-0.2,0.6c0,0.1,0,0.2,0,0.3C739.4,423.1,739.3,423.5,739.3,423.8z M737.6,422.7c-0.1,0-0.2,0-0.2,0
			c0-0.1,0-0.4,0-0.6c0.1-0.4,0.2-0.8,0.3-1.2c0.3-0.7,0.8-1.3,1.4-1.8c1.1-1,2.3-1.7,3.5-2.2l-0.6,1.6l-1.1-1.9l-1.3-1.9
			c-0.9-1.2-1.8-2.4-2.8-3.6c-2-2.4-3.9-4.7-6-7.1c-4.1-4.7-8.2-9.3-12.4-13.9c-4.1-4.7-8.2-9.4-12.1-14.3c-0.5-0.6-1-1.2-1.5-1.9
			l-1.4-1.9c-0.5-0.6-0.9-1.3-1.4-2c-0.4-0.7-0.9-1.4-1.3-2.1l-4.6-8.1l2.7,1.3c-0.9,0.2-1.7,0.2-2.4,0.3l-2.3,0.3l-4.5,0.5
			c-3,0.4-5.9,0.8-8.8,1.4c-2.9,0.6-5.7,1.3-8.2,2.5c-1.2,0.6-2.3,1.2-3,2c-0.3,0.4-0.6,0.7-0.7,1.1c-0.2,0.3-0.2,0.7-0.2,1.1
			l-1-1.6l17.1,13l17.2,13c5.7,4.3,11.5,8.6,17.3,12.9c5.7,4.3,11.6,8.5,17.5,12.5c0.1,0.1,0.2,0.2,0.3,0.4l0,0l1.1,2.9l-1-0.6
			C737.4,422.5,737.4,422.6,737.6,422.7z"/>
	</g>
	<g>
		<path class="st27" d="M739.3,427.8c0.2,1.1,0.4,2,0.5,3c0.1,0.5,0.1,1,0.2,1.5c0,0.5,0.1,1,0.1,1.5l0,0L740,434
			c0,0.1-0.1,0.3-0.2,0.4l-2.4,2.7l0,0l0,0c-0.2,0.4-0.7,0.5-1.1,0.5c-1.5-0.2-2.8-0.6-4.2-0.9c-1.4-0.3-2.7-0.7-4-1.1
			c-2.7-0.7-5.3-1.5-8-2.3c-2.6-0.8-5.3-1.6-7.9-2.3c-2.7-0.7-5.3-1.5-8-2.4c-10.5-3.4-20.9-7.8-30.5-13.4
			c-9.7-5.5-18.7-12.2-27.4-18.9c-2.2-1.7-4.4-3.4-6.6-5c-1.1-0.8-2.2-1.6-3.3-2.4c-1.1-0.7-2.3-1.5-3.5-2.4
			c-2.3-1.7-4.5-3.5-6.6-5.5c-2.1-2-4-4-5.8-6.4c-0.1-0.1-0.2-0.3-0.3-0.5c-0.2-0.5-0.2-0.7-0.3-1c0-0.2-0.1-0.5-0.1-0.7
			c0-0.5,0-0.9,0-1.4c0.1-0.9,0.3-1.7,0.6-2.5c0.6-1.6,1.4-2.9,2.4-4.2c1.9-2.4,4.1-4.3,6.5-6c2.4-1.7,5.2-3,8.1-3.9
			c1.5-0.4,3-0.7,4.5-0.8c0.8-0.1,1.5-0.1,2.3,0c0.4,0,0.8,0,1.2,0.1c0.4,0,0.8,0.1,1.3,0.2l0,0l-1.7,0.2c0.8-0.3,0.8-0.2,1.1-0.3
			c0.2,0,0.4,0,0.6,0c0.3,0,0.6,0.1,0.8,0.1c0.5,0.1,0.9,0.2,1.2,0.4c0.7,0.3,1.3,0.6,1.9,1c1.1,0.7,2.1,1.4,3.1,2.2
			c1,0.8,1.9,1.6,2.7,2.4c0.5,0.4,0.8,0.7,1.2,1.1l1.3,1.1c3.5,2.9,7.2,5.7,10.9,8.4c7.4,5.6,14.7,11.1,22.2,16.5l22.3,16.4
			c7.4,5.5,14.9,10.9,22.3,16.3l0,0c0.1,0.1,0.2,0.2,0.3,0.4c0.4,1.3,0.8,2.5,1.1,3.8C738.7,425.3,739,426.5,739.3,427.8z
			 M738.6,427.9c-0.5-1.2-1-2.4-1.5-3.6c-0.5-1.2-0.9-2.4-1.3-3.6l0.3,0.4c-7.6-5.2-15.3-10.4-22.9-15.6l-22.8-15.7
			c-7.6-5.2-15.2-10.5-22.7-15.9c-3.8-2.7-7.5-5.4-11.3-8.2l-1.4-1.1c-0.5-0.4-1-0.9-1.4-1.2c-0.8-0.7-1.7-1.4-2.5-2.1
			c-0.9-0.7-1.7-1.3-2.6-1.7c-0.4-0.2-0.8-0.4-1.2-0.6c-0.2-0.1-0.3-0.1-0.4-0.1c-0.1,0-0.1,0,0,0c0,0,0.1,0,0.1,0c0,0,0.1,0,0.1,0
			c0,0,0.1,0,0.2,0l0.1,0c0.1,0,0.2-0.1,0.3-0.1l-1.7,0.2h0c-0.1,0-0.4-0.1-0.7-0.1c-0.3,0-0.6-0.1-0.9-0.1c-0.6,0-1.2,0-1.8,0
			c-1.2,0.1-2.4,0.3-3.6,0.6c-2.4,0.6-4.6,1.7-6.7,3.1c-2.1,1.4-4.1,3.1-5.6,5c-0.7,0.9-1.4,1.9-1.8,2.9c-0.2,0.5-0.3,1-0.4,1.4
			c0,0.2,0,0.4,0,0.6c0,0.1,0,0.2,0,0.3c0,0,0.1,0.2,0,0l-0.3-0.5c0.7,1,1.6,2,2.5,3c0.9,1,1.8,2,2.7,2.9c1.9,1.9,3.9,3.6,6.1,5.2
			c1.1,0.8,2.1,1.5,3.3,2.4c1.2,0.8,2.3,1.6,3.4,2.5c2.2,1.7,4.4,3.4,6.5,5.1c8.6,6.9,17.3,13.5,26.7,19.1
			c9.4,5.6,19.4,10,29.7,13.6c2.6,0.9,5.2,1.7,7.8,2.5c2.7,0.8,5.3,1.6,7.9,2.5c2.6,0.8,5.3,1.6,7.9,2.4c1.3,0.4,2.6,0.8,3.9,1.1
			c1.3,0.4,2.7,0.7,3.9,0.9l-1.1,0.5l0,0l1.6-3.3l-0.2,0.6v0c0.2-0.4,0.3-0.9,0.5-1.3c0.2-0.4,0.3-0.9,0.4-1.4
			C738.2,429.7,738.4,428.7,738.6,427.9z"/>
	</g>
	<path class="st30" d="M889.5,443.5c-3,1-15,8-28,9c-6,0.5-16.6,0.9-28.1,0.9c-1,0-2,0-3,0c0,0,0,0,0,0c-12.8-0.1-26.3-0.9-35.8-2.9
		c-0.2,0-0.4-0.1-0.6-0.1c-18.8-4-36.4-9.9-36.4-9.9l0.8-2.2l0.3-0.9l2.8-7.8c0,0,38,2,45,2s31-1,42-5s19-9,19-9s2-3,5,0
		s17,21,17,21S892.5,442.5,889.5,443.5z"/>
	<path class="st33" d="M868.9,487.4c-0.3,0.4-0.7,0.8-1.4,1.1c-4,2-13,6-13,6s-3,1-9-3s-13-12-13-12s-2-2.7-5-6.3
		c-4.2-5.1-10.3-11.8-15-14.7c-2.8-1.7-10.2-4.8-18.6-8.1c0.2,0,0.4,0.1,0.6,0.1c9.5,2,23.1,2.8,35.8,2.9c0,0,0,0,0,0
		c7.8,5,14.2,9.1,14.2,9.1l23,20C867.5,482.5,870.3,485.3,868.9,487.4z"/>
	<g>
		<path class="st27" d="M825.8,540.6c0.6,0.9,1.1,1.8,1.5,2.8c0.4,1,0.8,2.2,1.2,3.5l0.1,0.3c0.1,0.5-0.1,1-0.6,1.1
			c-0.2,0.1-0.4,0.1-0.5,0l0,0c-5.2-0.6-10.5-1.2-15.7-1.9c-2.6-0.3-5.3-0.7-8-1.3c-1.3-0.4-2.6-0.8-3.9-1.2c-1.3-0.5-2.5-1-3.8-1.6
			c-5-2.4-9.3-6-12.9-10.2c-1.8-2.1-3.4-4.3-4.9-6.6c-1.4-2.4-2.7-4.7-3.7-7.5c0-0.1,0-0.1,0-0.2l0-0.1c-1.1-5.2-2.2-10.5-3.2-15.8
			c-1-5.3-1.9-10.5-2.7-15.9c-0.1-0.7-0.2-1.3-0.3-2l-0.1-1l-0.1-0.5l-0.1-0.4l-0.1-0.8l-0.2-0.9c-0.1-0.6-0.3-1.2-0.6-1.8
			c-0.8-2.4-1.9-4.7-3.1-7.1c-2.3-4.7-5-9.3-7.7-13.7l0.4,0.5c-2.4-2.4-4.9-4.9-7.2-7.4c-1.2-1.3-2.3-2.6-3.5-3.9
			c-1.1-1.3-2.2-2.6-3.3-4l0,0l-0.1-0.2c-0.5-0.6-0.4-1.5,0.2-1.9c0.1-0.1,0.3-0.2,0.4-0.2l12.2-4.3l0,0l0.1,0
			c0.5-0.2,0.9,0,1.3,0.2c0.3,0.2,0.4,0.3,0.5,0.5l0.4,0.4l0.8,0.8l1.6,1.5l-1-0.4h0h0c0.4,0,0.7,0.2,1,0.4
			c7.5,7.4,14.7,15.1,21.1,23.6c1.6,2.1,3.1,4.3,4.5,6.7c0.7,1.2,1.3,2.4,1.9,3.6c0.6,1.2,1.1,2.6,1.5,3.8c1.8,5,3.4,10,5.1,14.9
			c1.7,4.9,3.5,9.9,5.7,14.6c0.5,1.2,1.1,2.4,1.7,3.5c0.3,0.6,0.6,1.2,0.9,1.7l1,1.7c0.6,1.1,1.4,2.2,2.1,3.2c0.4,0.5,0.8,1,1.2,1.5
			c0.4,0.5,0.8,1,1.2,1.5l1.3,1.4c0.4,0.4,0.9,0.8,1.4,1.2l0.7,0.6c0.2,0.2,0.5,0.4,0.8,0.6l1.6,1.1c2.1,1.5,4.3,2.9,6.5,4.2
			c4.5,2.6,9.1,5,13.9,6.9l0,0c0.6,0.2,0.9,0.9,0.7,1.5c-0.1,0.3-0.4,0.6-0.7,0.7l-0.2,0.1c-1.5,0.5-2.8,1-4.1,1.3
			C828.3,540.3,827.1,540.5,825.8,540.6z M821.2,538.4c2-0.5,4.1-1,6.1-1.4c2-0.4,4-0.6,5.9-0.7l-0.2,2.3l0,0c-5-2-9.7-4.4-14.3-7.1
			c-2.3-1.4-4.5-2.8-6.7-4.3l-1.6-1.2c-0.3-0.2-0.5-0.4-0.8-0.6l-0.8-0.7c-0.5-0.5-1.1-0.9-1.6-1.4l-1.4-1.5c-0.5-0.5-0.9-1-1.3-1.6
			c-0.4-0.5-0.9-1.1-1.2-1.6c-0.7-1.1-1.5-2.2-2.2-3.4l-1-1.7c-0.3-0.6-0.6-1.2-0.9-1.8c-0.6-1.2-1.2-2.4-1.8-3.6
			c-2.2-4.8-4.1-9.8-5.8-14.8c-1.7-5-3.3-10-5.1-14.9c-0.4-1.3-0.9-2.4-1.4-3.5c-0.6-1.1-1.2-2.3-1.8-3.4c-1.3-2.2-2.8-4.3-4.3-6.4
			c-6.2-8.3-13.5-15.9-20.9-23.3l1,0.4h0c-0.4,0-0.7-0.1-1-0.4l0,0l-3-2.9l1.3,0.2l0,0l-12.2,4.2l0.5-2.3l0,0c1.4,1,2.7,2.1,4.1,3.2
			c1.3,1.1,2.6,2.2,3.9,3.4c2.6,2.3,5.1,4.7,7.5,7.1l0,0c0.1,0.1,0.3,0.3,0.4,0.4c2.8,4.7,5.4,9.4,7.8,14.3c1.2,2.5,2.3,5,3.2,7.7
			c0.2,0.7,0.5,1.3,0.6,2.1l0.3,1.1l0.2,1.2l0.1,0.6l0.1,0.5l0.1,1c0.1,0.6,0.2,1.3,0.2,2c0.7,5.2,1.6,10.5,2.5,15.7l2.8,15.7
			l-0.1-0.2c0.8,2.2,1.9,4.6,3.2,6.8c1.3,2.2,2.7,4.3,4.3,6.2c3.2,3.9,7.1,7.3,11.6,9.6c1.1,0.6,2.3,1.1,3.4,1.6
			c1.2,0.4,2.4,0.8,3.6,1.2c2.5,0.6,4.9,1.1,7.6,1.5c5.2,0.8,10.5,1.7,15.7,2.6h0l-1.1,1.4c-1-1.3-2-2.8-2.9-4.4
			C822.9,541.9,822,540.2,821.2,538.4z"/>
	</g>
	<g>
		<path class="st27" d="M734.4,435.6c0,0.4,0,0.9-0.1,1.5c-0.1,0.6-0.4,1.2-0.8,1.6c-0.2,0.2-0.4,0.4-0.6,0.6l-0.2,0.2l-0.1,0
			l-0.3,0.2l-1,0.7l-2,1.2l-3.9,2.3l-7.8,4.4l-15.6,8.6c-2.6,1.4-5.1,2.9-7.9,4.3c-2.7,1.4-5.4,2.7-8.2,3.9
			c-5.6,2.3-11.3,4.3-17,5.9c-11.5,3.2-23.2,5.6-34.8,8.1c-5.8,1.2-11.6,2.4-17.5,3.5l-4.4,0.9L608,484c-2.9,0.6-5.8,1.2-8.6,2.5
			l0,0c-1,0.5-2.2,0-2.6-0.9c-0.3-0.6-0.2-1.3,0.1-1.8l0.2-0.3c1.3-2.2,2.5-4.5,3.7-6.7c0.6-1.1,1.1-2.3,1.7-3.4
			c0.5-1.2,1.1-2.3,1.6-3.5l0,0l0.3,1.7c-1.5-1.5-3-2.9-4.6-4.3c-1.6-1.4-3.1-2.8-4.8-4l0,0c-0.9-0.7-1.1-2.1-0.4-3
			c0.4-0.5,1-0.8,1.6-0.8l0.2,0l20.2-1.1l-0.3,0c8-1.6,16.1-3.3,24.1-5.1c8-1.8,16-3.6,24-5.6c1-0.2,1.9-0.5,2.9-0.8
			c0.9-0.3,1.9-0.6,2.9-1c1.9-0.7,3.8-1.4,5.7-2.2c3.8-1.5,7.6-3.1,11.3-4.8c1.9-0.8,3.7-1.7,5.6-2.5l1.4-0.7
			c0.2-0.1,0.4-0.2,0.6-0.3l0.7-0.4c0.9-0.5,1.8-1.1,2.7-1.6c1.8-1,3.7-2,5.5-2.9c1.8-1,3.6-1.9,5.2-3l0,0l0.1-0.1
			c0.3-0.2,0.7-0.2,1.1-0.1c0.5,0.2,0.9,0.4,1.4,0.6c0.2,0.1,0.5,0.3,0.7,0.4c0.2,0.1,0.4,0.2,0.6,0.2c0.4,0.2,0.9,0.3,1.3,0.4
			c0.5,0.1,1,0.3,1.4,0.5c1.9,0.6,3.7,1.3,5.6,1.9c1.9,0.6,3.7,1.2,5.6,1.7c0.9,0.3,1.9,0.4,2.9,0.6c0.5,0.1,1,0.1,1.5,0.1
			c0.2,0,0.5,0,0.7,0c0.1,0,0.2,0,0.4,0c0,0,0,0,0.1,0c0.1,0,0.2,0.1,0.4,0.1c0.3,0.1,0.5,0.3,0.8,0.4
			C733.8,434.6,734.1,435.1,734.4,435.6z M728.6,437.4c0.1,0.4,0.4,0.9,0.7,1.2c0.2,0.2,0.4,0.3,0.6,0.4c0.1,0,0.2,0.1,0.3,0.1
			c0.1,0,0,0,0,0c-0.1-0.1-0.2-0.2-0.3-0.3l-0.6-0.5c-0.4-0.3-0.8-0.6-1.3-0.9c-0.8-0.5-1.7-1-2.6-1.5c-1.8-0.8-3.6-1.6-5.3-2.4
			c-1.8-0.8-3.6-1.5-5.4-2.1c-0.5-0.2-0.9-0.3-1.3-0.4c-0.5-0.1-1-0.3-1.5-0.4c-0.3-0.1-0.5-0.2-0.8-0.3c-0.3-0.1-0.4-0.2-0.6-0.3
			c-0.4-0.2-0.9-0.3-1.3-0.4l1.1-0.2l0,0c-1.8,1.3-3.6,2.2-5.4,3.3c-1.8,1-3.6,2-5.4,3c-0.9,0.5-1.8,1-2.6,1.5l-0.6,0.4
			c-0.3,0.1-0.5,0.3-0.8,0.4l-1.4,0.7c-1.9,0.9-3.7,1.8-5.6,2.7c-3.7,1.7-7.5,3.4-11.3,5c-1.9,0.8-3.8,1.6-5.8,2.3
			c-1,0.4-2,0.7-3,1.1c-1,0.3-2.1,0.6-3,0.9c-8,2.2-16,4.1-24,6c-8,1.9-16,3.7-24.1,5.5c-0.1,0-0.2,0-0.2,0l0,0l-20.2,1.4l1.5-3.8
			l0,0c1.3,1.7,2.7,3.2,4,4.8c1.4,1.6,2.8,3.1,4.3,4.6l0,0c0.4,0.4,0.5,1.1,0.3,1.6l0,0c-0.6,1.1-1.1,2.3-1.6,3.5
			c-0.5,1.2-1,2.3-1.4,3.5c-0.9,2.4-1.8,4.8-2.6,7.2l-2.4-3.1l0,0c3,0.3,6-0.2,8.9-0.7l4.4-0.8l4.3-0.9c5.8-1.2,11.5-2.6,17.3-4
			c11.5-2.8,23.1-5.5,34.3-8.9c5.6-1.7,11.1-3.7,16.4-6.1c5.3-2.4,10.3-5.3,15.4-8.3c5.1-3,10.2-6,15.3-9l7.6-4.6l3.7-2.3l1.8-1.2
			l0.8-0.6l0.2-0.1l0.1,0l-0.1,0.1c-0.1,0.1-0.2,0.2-0.3,0.4c-0.2,0.3-0.4,0.8-0.4,1.3C728.3,436.7,728.5,437.1,728.6,437.4z"/>
	</g>
</g>
</svg>
