<?xml version="1.0" encoding="utf-8"?>
<!-- Generator: Adobe Illustrator 22.1.0, SVG Export Plug-In . SVG Version: 6.00 Build 0)  -->
<svg version="1.1" id="Layer_1" xmlns="http://www.w3.org/2000/svg" xmlns:xlink="http://www.w3.org/1999/xlink" x="0px" y="0px"
	 viewBox="0 0 300 300" style="enable-background:new 0 0 300 300;" xml:space="preserve">
<style type="text/css">
	.st0{fill:#FFFFFF;}
</style>
<g id="XMLID_504_">
	<path id="XMLID_505_" class="st0" d="M38.5,0h223C282.7,0,300,17.3,300,38.5v223c0,21.2-17.3,38.5-38.5,38.5h-223
		C17.3,300,0,282.7,0,261.5v-223C0,17.3,17.3,0,38.5,0z M218.5,33.3c-7.4,0-13.5,6.1-13.5,13.5v32.3c0,7.4,6.1,13.5,13.5,13.5h33.9
		c7.4,0,13.5-6.1,13.5-13.5V46.9c0-7.4-6.1-13.5-13.5-13.5C252.4,33.3,218.5,33.3,218.5,33.3z M266.1,126.9h-26.4
		c2.5,8.2,3.9,16.8,3.9,25.8c0,49.9-41.8,90.3-93.3,90.3C98.8,243,57,202.5,57,152.6c0-9,1.4-17.6,3.9-25.8H33.3v126.7
		c0,6.6,5.4,11.9,11.9,11.9h208.9c6.6,0,11.9-5.3,11.9-11.9V126.9z M150.3,91C117,91,90,117.1,90,149.4c0,32.2,27,58.4,60.2,58.4
		c33.3,0,60.3-26.1,60.3-58.4C210.5,117.1,183.6,91,150.3,91z"/>
</g>
</svg>
