<?xml version="1.0" encoding="utf-8"?>
<!-- Generator: Adobe Illustrator 22.1.0, SVG Export Plug-In . SVG Version: 6.00 Build 0)  -->
<svg version="1.1" id="Layer_1" xmlns="http://www.w3.org/2000/svg" xmlns:xlink="http://www.w3.org/1999/xlink" x="0px" y="0px"
	 viewBox="0 0 108 130" style="enable-background:new 0 0 108 130;" xml:space="preserve">
<style type="text/css">
	.st0{fill:none;stroke:#63C0C0;stroke-width:6;stroke-opacity:0.8;}
</style>
<path class="st0" d="M9.1,78l11.4,49h64.8l17.2-52.1c-26,6.7-78.7,16.1-81,0c-2.9-20.1,9.6-23.6,11.4-24.1
	c1.7-0.6,12.5-2.2,13.9,4.7c1.2,6.4-2.9,8.9-6.2,9.9c-6.9,2.2-26.2,2.5-31.5-2.8c-5.2-5.3-7.5-10.1-5.2-20.7
	C6.2,31.2,23.2,31,28.4,28.1c5.2-3,7.6-6,9.3-11.8C39.8,8.7,35.9,7,33.6,5C31.7,3.3,39.4,2,45,3.9c6.9,2.4,8.7,4.7,11,8.3
	c4.3,6.6,2.2,13.1,8.7,16.6c9.8,5.3,17.4,1,24.3,2.4c5.2,1,13.5,5.8,15.2,12.9c1.4,5.7,0.6,16.6,0,21.3"/>
</svg>
