<?xml version="1.0" encoding="utf-8"?>
<!-- Generator: Adobe Illustrator 22.1.0, SVG Export Plug-In . SVG Version: 6.00 Build 0)  -->
<svg version="1.1" xmlns="http://www.w3.org/2000/svg" xmlns:xlink="http://www.w3.org/1999/xlink" x="0px" y="0px"
	 viewBox="0 0 1047 1047" style="enable-background:new 0 0 1047 1047;" xml:space="preserve">
<style type="text/css">
	.st0{fill:#FDF5F5;}
	.st1{fill:url(#SVGID_1_);}
	.st2{fill:url(#SVGID_2_);}
	.st3{fill:url(#SVGID_3_);}
	.st4{fill:url(#SVGID_4_);}
	.st5{fill:#E6F2FF;}
	.st6{fill:url(#SVGID_5_);}
	.st7{opacity:0.6;fill:url(#SVGID_6_);}
	.st8{opacity:0.6;fill:url(#SVGID_7_);}
	.st9{opacity:0.6;fill:url(#SVGID_8_);}
	.st10{fill:url(#SVGID_9_);}
	.st11{opacity:0.65;fill:#ABC9D1;}
	.st12{opacity:0.65;fill:#C48BA1;}
	.st13{opacity:0.65;}
	.st14{fill:#FFEAED;}
	.st15{opacity:0.6;fill:#FBB081;}
	.st16{opacity:0.6;}
	.st17{fill:#FBB081;}
	.st18{fill:#FFFFFF;}
	.st19{opacity:0.64;}
	.st20{fill:#603813;}
	.st21{fill:none;stroke:#603813;stroke-width:3.9424;stroke-miterlimit:10;}
	.st22{fill:none;stroke:#603813;stroke-miterlimit:10;}
	.st23{opacity:0.32;fill:none;stroke:#603813;stroke-miterlimit:10;}
	.st24{opacity:0.21;fill:none;stroke:#603813;stroke-miterlimit:10;}
</style>
<g id="BG">
	<g>
		<circle class="st0" cx="523.5" cy="523.5" r="523.5"/>
	</g>
</g>
<g id="Color">
	<linearGradient id="SVGID_1_" gradientUnits="userSpaceOnUse" x1="521.5048" y1="696.3063" x2="524.7458" y2="425.2332">
		<stop  offset="0" style="stop-color:#E6D6C7"/>
		<stop  offset="2.977848e-02" style="stop-color:#E5D0C6"/>
		<stop  offset="0.119" style="stop-color:#E3C4C5"/>
		<stop  offset="0.2073" style="stop-color:#E2C0C4"/>
		<stop  offset="0.3037" style="stop-color:#E3B6B4"/>
		<stop  offset="0.4423" style="stop-color:#E4ACA2"/>
		<stop  offset="0.5439" style="stop-color:#E4A89C"/>
		<stop  offset="0.6659" style="stop-color:#DE9A9E"/>
		<stop  offset="0.8275" style="stop-color:#D98FA0"/>
		<stop  offset="1" style="stop-color:#D78BA1"/>
	</linearGradient>
	<path class="st1" d="M651.5,389.1l-5.5,4.4c-2.3,1.3-5,3-7.8,5.1c-1.3-0.2-2.7,1.2-4,3.1c-0.7,0.6-1.5,1.2-2.2,1.8
		c-54.5,47.3-47.3,155.2-45,190c0.1,2.1,1.3,19.5-2,42c-3.5,23.8-6.7,43.4-22,54c-5,3.5-20,14-36,13h-9c-25,0-34.1-11-37-13
		c-15.3-10.6-18.5-30.2-22-54c-3.3-22.5-2.1-39.9-2-42c2.1-31.7,8.3-124.1-31.9-176c-2.9-3.7-6-7.3-9.4-10.5
		c-1.2-1.2-2.5-2.3-3.8-3.4c-4.7-4.1-8.3-5.8-12-8c-0.6-0.4-1-0.7-1.2-0.9c0.1-0.1,0.2-0.3,0.3-0.4c0.2-0.2,0.4-0.5,0.6-0.7h15.1
		c1.3,1.1,2.9,2.5,5.1,4c1,0.7,7.4,5,15,7c7.2,1.9,13,1,20,0c7-1,13.2-2,20-6c3.1-1.8,4.8-3.5,6.5-5c1.9-1.8,3.8-3.4,7.5-5
		c1.2-0.5,5.4-2.3,13-3c7.4-0.7,17.5-0.1,32,5c3,1.1,5.5,2.1,7.5,3c10.1,4.6,10.5,7.7,20.5,10c4,0.9,18.4,4.3,33-2
		c5.6-2.4,8.7-5.1,12.7-8c3.2-2.3,7.1-4.7,13.3-7c15.3-5.8,22.3-2.8,24-2C645.8,384.8,649.1,386.5,651.5,389.1z"/>
	<linearGradient id="SVGID_2_" gradientUnits="userSpaceOnUse" x1="442.5292" y1="255.8557" x2="529.9821" y2="361.8563">
		<stop  offset="0.2634" style="stop-color:#FFFFFF"/>
		<stop  offset="0.3103" style="stop-color:#F9F6F6"/>
		<stop  offset="0.4293" style="stop-color:#EEE6E4"/>
		<stop  offset="0.5561" style="stop-color:#E7DCD9"/>
		<stop  offset="0.7024" style="stop-color:#E5D9D6"/>
	</linearGradient>
	<polygon class="st2" points="424,348 427,346 419,329 419,314 433,294 453,294 453,289 453,281 465,270 478,266 491,263 495,255 
		495,248 486,241 478,234 478,228 480,213 489,203 495,215 504,221 521,228 539,231 549,234 557,242 565,259 565,275 561,280 
		572,277 587,278 605,291 610,298 610,314 610,322 606,335 612,335 621,340 632,353 635,368 632,372 621,372 606,385 589,393 
		573,395 558,391 545.5,384.5 530.5,376.5 517.5,374.5 499.5,371.5 481.5,379.5 462.5,388.5 448.5,391.5 436.5,390.5 424.5,385.5 
		409,377 409,375 407,368 408,358 420,352 	"/>
	<radialGradient id="SVGID_3_" cx="526.5" cy="397" r="101.9957" gradientUnits="userSpaceOnUse">
		<stop  offset="0" style="stop-color:#FFFFFF"/>
		<stop  offset="0.5488" style="stop-color:#E6F2FF"/>
		<stop  offset="0.5856" style="stop-color:#E3EFFF"/>
		<stop  offset="0.7861" style="stop-color:#D8E5FF"/>
		<stop  offset="1" style="stop-color:#D4E1FF"/>
	</radialGradient>
	<path class="st3" d="M425,418l-9-11l-4,3l-12-11l1-6l9-3l12,7l13,7l14.1,0.8l17.2-2.4L482,393l9-5.7l15.2-2L526,387l12.2,5.1
		l12.8,6.8l13.7,5.2l14.7,1l16.9-4.7l9.6-5.6l15-8.8l11.7-3l10.3,0l8,6l3,2v6l-3,4l-4,3l-5-2l-1-3l-8,6l2,4l5,4h10l10-4l7-8l1-7
		l-3-11l-4-6c0,0-11-6-9-6s-10-2-10-2l-12.4,1l-8.6,2l-12,7l-14.5,8.9l-10.6,3.3l-14.3,0.9L556,387l-17-10l-12.9-3.6l-17.5-2.4
		l-16.3,1.7l-15.9,7.2l-12.2,6.6l-13.2,2.4L436,388l-12-3l-6.4-5.3L409,375h-9l-9,6l-6,8v8l3,10l6,8l7,6l7,4h8L425,418z"/>
	<radialGradient id="SVGID_4_" cx="524.25" cy="719" r="43.25" gradientUnits="userSpaceOnUse">
		<stop  offset="0" style="stop-color:#FFFFFF"/>
		<stop  offset="0.5488" style="stop-color:#E6F2FF"/>
		<stop  offset="0.5856" style="stop-color:#E3EFFF"/>
		<stop  offset="0.7861" style="stop-color:#D8E5FF"/>
		<stop  offset="1" style="stop-color:#D4E1FF"/>
	</radialGradient>
	<path class="st4" d="M557.5,717.3c0,5.3-3.9,10.1-10.1,13.5c-1.1,0.6-2.2,1.1-3.4,1.6c-5.5,2.3-12.3,3.7-19.7,3.7
		c-6.3,0-12.3-1-17.3-2.8c-1-0.4-2-0.7-3-1.2c-7.9-3.4-12.9-8.8-12.9-14.8c0-10.4,13.6-15.3,32-15.3S557.5,706.9,557.5,717.3z"/>
	<path class="st5" d="M550.9,798.3c-8.3,2.3-17.4,3.8-26.9,3.8h0c-9.6,0.1-18.7-1.4-27-3.8c0,0-7-7.9,0-13.6
		c1.7-1.3,2.9-2.9,3.9-4.6c3.1-5.3,3.1-11.2,3.1-11.2l-0.1-36.8c1,0.4,2,0.8,3,1.2c5.1,1.7,11,2.8,17.3,2.8c7.4,0,14.2-1.4,19.7-3.7
		l-0.1,36.5c0,0,0,5.3,2.6,10.4c1,2,2.4,3.9,4.4,5.5C557.9,790.3,550.9,798.3,550.9,798.3z"/>
	<path class="st5" d="M627,821c-9.1,8.8-20.2,13.8-38,18c-16.8,4-31.3,5.4-43,6c-13,0.6-35.7,1-64-4c-25.8-4.5-35.9-9.9-43-15
		c-4.5-3.3-19.2-13.9-17-24c0.8-3.6,3.8-7.3,14-12c14.8-6.8,28-8,45-9c7.4-0.4,13.6-0.7,19.9-0.9c-1,1.7-2.2,3.3-3.9,4.6
		c-7,5.6,0,13.6,0,13.6c8.3,2.3,17.4,3.8,27,3.8h0c9.6,0.1,18.7-1.4,26.9-3.8c0,0,7-7.9,0-13.6c-2-1.6-3.4-3.5-4.4-5.5
		c3.3-0.1,6.7-0.1,10.5-0.2c2.1,0,4.2-0.1,7,0c16.5,0.5,28.7,4,42,8c7.3,2.2,11.5,3.8,16,6c7.5,3.8,12.8,6.3,14,11
		C637.7,810.5,630.5,817.5,627,821z"/>
	<radialGradient id="SVGID_5_" cx="536.8834" cy="187.2279" r="33.5189" gradientUnits="userSpaceOnUse">
		<stop  offset="0" style="stop-color:#F15A24"/>
		<stop  offset="0.1753" style="stop-color:#E14927"/>
		<stop  offset="0.439" style="stop-color:#CF362A"/>
		<stop  offset="0.7106" style="stop-color:#C52B2C"/>
		<stop  offset="1" style="stop-color:#C1272D"/>
	</radialGradient>
	<path class="st6" d="M558.5,204.5c-5,12.6-16.5,17.7-20,19c-4,1.5-8.5,2.4-13.2,2.5c-1.3-0.3-2.7-0.6-4.3-1c-7.1-1.8-16.3-5-23-8.9
		c-1.7-1.7-3.2-3.5-4.5-5.6c-1.5-2.4-2.6-5-3.3-7.7c0.6-0.9,1.5-1.8,2.8-2.8c-0.9,0.1-2.1,0.3-3.4,0.8c-1.7-7.6-0.6-15.7,2.9-22.3
		c3.4-6.4,11.1-15,18-14c2.2,0.3,6.8,1.9,11,4c2.7,1.4,4.1,2.4,6,2c2.8-0.6,3.1-3.5,6-5c3.2-1.7,7-0.2,10,1c9.1,3.5,13.6,11.3,14,12
		C564,190,559.4,202.2,558.5,204.5z"/>
</g>
<g id="Shadows">
	<radialGradient id="SVGID_6_" cx="493.5" cy="280" r="29.6332" gradientUnits="userSpaceOnUse">
		<stop  offset="0" style="stop-color:#C2B0B8"/>
		<stop  offset="0.9854" style="stop-color:#C2B0B8"/>
	</radialGradient>
	<polygon class="st7" points="462.7,271.2 473.5,277.5 486.5,280.5 506.5,280.5 523.5,275.5 533.5,267.5 523.5,277.5 511.5,284.5 
		485.5,291.5 459.5,292.5 453.5,292.5 453.8,282 	"/>
	<radialGradient id="SVGID_7_" cx="565.1205" cy="303.335" r="80.8619" gradientUnits="userSpaceOnUse">
		<stop  offset="0" style="stop-color:#C2B0B8"/>
		<stop  offset="0.9854" style="stop-color:#C2B0B8"/>
	</radialGradient>
	<path class="st8" d="M635.2,368.8L630,370l-16.1,6.1L594,388l-15.4,5.7l-13.1-3.1L578,389c7.7-2.7,13.8-5.7,18-8
		c13.1-7.2,14.6-11.5,15-13c1.2-4.4-0.3-8.3-1-10c-2.6-6.7-8.3-9.9-12-12c-6.6-3.7-12.4-4.3-19-5c-11.9-1.3-21.1,0.6-23,1
		c-8,1.7-13.7,4.4-15.9,5c-0.6,0.2-1,0.2-1.1,0c-0.5-0.9,4.3-4.6,8.7-7.3c3.5-2.2,11.6-7.2,23.3-8.7c5.9-0.8,7.8,0,10-2
		c3.9-3.6,2.5-10.6,2-15c-0.3-2.5-1.7-15-12-21c-1.7-1-6.3-3.7-12-3c-4.5,0.5-6.2,2.9-14,5c-1.6,0.4-2.9,0.7-3.9,1
		c-3.6,0.7-4,0.2-4.1,0c-0.9-1.5,5.5-5.2,11-14c1.5-2.5,3.6-6.3,5-11c1.4-4.5,3.8-12.6,1-20c-3.5-9.4-13.6-13.4-20-16
		c-12.2-4.9-17.3-1.8-26-7c-7-4.2-10.8-10.5-13-15l9,6l15.1,5.5l10.8,2.4c0,0,0.1,0,0.1,0l9,2l2.8,0.5c1.2,0.4,2.6,0.9,4.2,1.5
		c9.8,3.9,13.5,13.1,15,16c2,3.8,6.3,12.1,4,22c-0.5,2.3-0.1,4.2-1,6h7c2.8-0.5,7-0.9,12,0c12.4,2.3,24.1,11.9,28,25
		c3.5,11.6-0.4,21.5-3,28c-0.5,1.2-0.9,2.3-1.4,3.3c-0.2,0.5-0.4,1-0.7,1.5c3.7-0.1,8.2,0.5,12.5,2.7
		C629.2,340.8,635.8,353.8,635.2,368.8z"/>
	<radialGradient id="SVGID_8_" cx="469" cy="333" r="36.5308" gradientUnits="userSpaceOnUse">
		<stop  offset="0" style="stop-color:#C2B0B8"/>
		<stop  offset="0.9854" style="stop-color:#C2B0B8"/>
	</radialGradient>
	<polygon class="st9" points="419,324.5 438,331 459,335 485,338 502,338 514,331 519,320 519,326 516,334 511,338 502,341 489,344 
		459,343 429,346 426.2,342.1 419,327 	"/>
	<radialGradient id="SVGID_9_" cx="465.25" cy="372.2187" r="42.7557" gradientUnits="userSpaceOnUse">
		<stop  offset="0" style="stop-color:#C2B0B8"/>
		<stop  offset="0.9854" style="stop-color:#C2B0B8"/>
	</radialGradient>
	<path class="st10" d="M407,356l17,13c0,0,25,9,35,6s27-6,27-6l21-3l16.5,7l-24.2-1.1l-17.8,5.5l-19,9l-19.5,1.9l-19-5.4l-15-8
		L407,356z"/>
	<path class="st11" d="M400.5,390.5c-4.3,1.1-5.6,3-6,4c-2,4.4,2.8,10.5,7.5,16.5c3.1,4,5.7,6,7,7c2.6,2,5.1,3.2,7,4l5,1l4.9-4.5
		L420,410l-4.5-2.7L412,410l-9-6l-3-8l2-4L400.5,390.5z"/>
	<polygon class="st11" points="656,397 654,404 647,407 640,408 635,407 632,404 639,396 642,401.2 645,404 649.5,402.6 654,397 	
		"/>
	<path class="st12" d="M566,407c0,0,22,11,23,25c1,14-9,55-9,55c-7,56.9-6.8,87-5,104c0.1,0.9,0.7,6,1,13c1.1,22.2,1.9,38.9-6,54
		c-6.7,12.7-17.1,19.4-21,22c-3.8,2.5-13,7.9-26,10c-5.3,0.9-16.6,2.5-30-2c-8.3-2.8-14.3-7-18-10l-6.4-3.2L479,691l14.5,5.9l13,4.1
		l20.5,1.5l14.5-1.9l14-6.3l16-12.3l9-18.4l6.8-31.9l1.8-32l-3.1-40l1.2-47.9l14.1-60.1l19.3-33.4l13.6-16.6L651,388l-6-3.5l-8.7-2
		l-15.3,4l-17.9,11.1L594,403l-18.9,1.8L562,403L566,407z"/>
	<g class="st13">
		<path class="st14" d="M464.3,480.9c3.4,8.9,5.7,18.1,7.4,27.4c0.8,4.7,1.5,9.4,1.8,14.1c0.3,4.7,0.3,9.5,0.2,14.2l-0.7,14.2
			c-0.2,4.7-0.3,9.4-0.3,14.1c0,4.7,0.1,9.4,0.2,14.1c0,2.4,0,4.7,0,7.1c0,1.2,0,2.4-0.1,3.5l-0.1,3.3l0,0.2l0,0l-0.5,9.3l-0.6,9.3
			c-0.2,3.1-0.4,6.1-0.5,9c-0.1,3,0,6,0.1,9c0.3,6,1,12,2,18.1c1.1,6,2.5,12,4,18l-0.6,0.2c-3.1-5.5-5.5-11.3-7.5-17.3
			c-1.9-6-3.2-12.2-4-18.6c-0.3-3.2-0.6-6.3-0.6-9.6c0-3.2,0.3-6.4,0.6-9.5l2-18.4l0,0.2l0-0.4l0-0.2l0-0.4l0.1-0.9l0.2-1.7
			c0.1-1.2,0.2-2.3,0.4-3.5c0.3-2.3,0.5-4.7,0.9-7c0.6-4.7,1.2-9.3,1.6-14c0.2-2.3,0.4-4.7,0.5-7c0.1-2.3,0.2-4.7,0.2-7
			c0-4.7-0.5-9.4-1-14c-0.6-4.6-1.3-9.3-1.8-13.9l-1.5-13.9c-1-9.3-2.2-18.5-3-28L464.3,480.9z"/>
	</g>
</g>
<g id="Highlights">
	<path class="st15" d="M547,186c0,2.2-1.3,4-3,4s-3-1.8-3-4c0-3,1.5-3.7,3-3C546,184,547,183.8,547,186z"/>
	<g class="st16">
		<path class="st17" d="M537,179c0.9,0.2,1.3,0.4,1.7,0.7c0.3,0.3,0.5,0.5,0.6,0.8c0,0.3,0,0.6-0.3,0.9c-0.3,0.3-0.6,0.7-1.4,1.1
			c-0.9-0.2-1.3-0.4-1.7-0.7c-0.3-0.3-0.5-0.5-0.5-0.8c0-0.3,0.1-0.6,0.3-0.9C535.8,179.8,536.2,179.4,537,179z"/>
	</g>
	<g>
		<path class="st18" d="M435.2,300.7c2.8,0.4,5.3,1.2,7.7,2c1.2,0.4,2.4,0.8,3.6,1.3c1.2,0.4,2.3,1,3.4,1.6c1.1,0.6,2.2,1.4,3.3,2.1
			c1.1,0.7,2.3,1.3,3.5,1.8c2.4,0.9,5,1.2,7.6,1l1.9-0.1c0.6,0,1.3-0.1,1.9-0.1c1.3,0,2.5,0,3.8,0c2.5,0,5-0.2,7.5-0.1
			c5,0.2,10.1,0.5,15.5,1.5c0.2,0,0.3,0.2,0.3,0.4c0,0.1-0.1,0.2-0.1,0.2l0,0c-1.2,0.7-2.4,1.3-3.7,1.8c-1.3,0.5-2.6,0.9-3.9,1.3
			c-2.6,0.7-5.3,1.1-8,1.2c-2.7,0.1-5.4-0.2-8-0.7c-2.7-0.4-5.3-1.1-7.8-2.2c-2.5-1-5-1.9-7.6-2.4c-1.3-0.3-2.6-0.4-4-0.5
			c-1.3-0.1-2.7-0.3-4.1-0.5c-1.3-0.3-2.6-0.8-3.8-1.4c-1.2-0.6-2.4-1.3-3.5-2c-2.2-1.5-4.3-3.3-5.9-5.7c-0.1-0.1-0.1-0.4,0.1-0.5
			C435,300.8,435.1,300.7,435.2,300.7z"/>
	</g>
	<g class="st19">
		<path class="st18" d="M591.7,358.9c-0.8,2-2,3.2-3.2,4.2c-0.6,0.5-1.3,0.9-1.9,1.3c-0.7,0.4-1.4,0.7-2.2,0.8
			c-1.6,0.2-3.5-0.4-5-0.1c-1.6,0.2-2.9,1.1-4,2.3l-0.3,0.1c-0.7,0.5-1.4,1.1-2.2,1.6c-0.7,0.5-1.5,0.8-2.2,1.1
			c-1.5,0.6-3,1.3-4.6,1.6c-1.6,0.2-3.3,0.2-5-0.1c-1.7-0.3-3.5-0.7-5.3-1.8c-0.3-0.1-0.3-0.5-0.2-0.7c0,0,0,0,0-0.1
			c1.3-1.7,2.7-2.8,4.2-3.8c1.5-0.9,3-1.6,4.5-2.1c1.6-0.4,3.2-0.4,4.9-0.4c0.8,0,1.7,0,2.5,0.1c0.9,0.1,1.7,0.4,2.6,0.6l-0.3,0.1
			c1.7,0.1,3.2-0.3,4.5-1.2c1.3-0.9,2.2-2.7,3.5-3.6c0.6-0.5,1.3-0.8,2.1-1c0.7-0.2,1.5-0.4,2.3-0.4c1.6-0.1,3.3-0.1,5.3,0.7
			C591.6,358.2,591.8,358.6,591.7,358.9C591.7,358.9,591.7,358.9,591.7,358.9z"/>
	</g>
	<g class="st19">
		<path class="st18" d="M560.5,301.5c2.1-0.9,4.3-0.8,6.4-0.2c2.1,0.7,4.1,2.1,5.4,4.1c1.4,1.9,2.1,4.6,1.5,7.1
			c-0.6,2.4-2.2,4.3-4.4,5c0.1-2.2,0-4-0.4-5.3c-0.4-1.3-1-2.3-1.7-3.4c-0.7-1.1-1.7-2.2-2.8-3.4
			C563.4,304.2,562.1,303.1,560.5,301.5z"/>
	</g>
	<g>
		<path class="st18" d="M490.8,222.3c3.1,3.3,5.8,6.5,8.6,9.5c1.4,1.4,2.9,2.8,4.4,4c1.5,1.2,3,2.2,4.6,3.1c1.6,0.9,3.2,1.6,5.3,2
			c2,0.4,4.3,0.7,6.5,0.9c2.2,0.2,4.4,0.4,6.5,0.5c2.2,0.1,4.4,0.1,6.6,0.2c2.3,0.1,4.7,0.4,7.1,1.6c2.4,1.1,4.3,2.7,6,4.6
			c1.7,1.9,3.1,4.2,3.9,6.7c0.9,2.5,1.1,5.2,0.8,7.8c-0.3,2.6-1.1,5-2.1,7.2c-1,2.2-2.3,4.2-3.7,6c-1.4,1.8-3,3.6-4.8,5
			c-1.8,1.5-3.7,2.7-5.8,3.6c-0.2,0.1-0.4,0-0.5-0.2c-0.1-0.1,0-0.3,0-0.4c1.3-1.8,2.5-3.6,3.5-5.3c1-1.8,1.9-3.6,2.7-5.5
			c1.7-3.8,2.9-7.5,3.1-11c0.1-1.7,0-3.4-0.4-5c-0.4-1.6-1.1-3.2-2.1-4.7c-1-1.5-2.3-2.8-3.7-3.9c-1.4-1.1-3.1-1.9-5.1-2.7
			c-3.9-1.4-8.3-2.3-12.5-2.2c-2.1,0-4.2,0.4-6.5,0.7c-2.3,0.4-5,0.3-7.4-0.5c-2.4-0.8-4.6-2.1-6.4-3.7c-1.8-1.6-3.3-3.4-4.6-5.3
			c-2.5-3.9-4.2-8.1-4.9-12.5c0-0.2,0.1-0.4,0.3-0.4C490.6,222.2,490.7,222.3,490.8,222.3z"/>
	</g>
	<g>
		<path class="st18" d="M420.1,353.7c4.9,1,9.5,2,14.2,2.6c2.3,0.3,4.7,0.5,7,0.7l7,0.4c4.7,0.3,9.6,0.6,14.3-0.3
			c2.4-0.5,4.7-1.2,6.8-2.3c2.1-1,4.1-2.5,6.5-3.7c2.3-1.2,4.8-2,7.3-2.6c2.5-0.6,5.2-0.9,7.8-0.8c2.5,0,4.6-0.1,6.9-0.4
			c1.1-0.1,2.3-0.3,3.4-0.5l3.6-0.6c4.7-0.7,9-1.6,12.8-3.8c3.9-2.2,7.2-5.5,9.9-9.6c0.1-0.1,0.3-0.2,0.4-0.1
			c0.1,0.1,0.2,0.2,0.1,0.3c-0.9,5-3.6,9.8-7.7,13.3c-2.1,1.7-4.5,3.1-7,4.1c-2.5,1-5,1.6-7.5,2.1c-1.2,0.2-2.5,0.4-3.7,0.6
			c-1.3,0.2-2.5,0.3-3.8,0.4c-2.6,0.2-5.4,0-7.7-0.2c-2.3-0.2-4.5-0.2-6.8-0.1c-2.3,0.2-4.7,0.3-6.9,0.9c-2.2,0.5-4.5,1.6-6.8,2.5
			c-2.4,0.9-4.7,1.6-7.1,2.3c-4.8,1.4-9.6,3-14.7,3.5c-2.5,0.3-5.1,0.2-7.6-0.1c-2.5-0.3-5-0.8-7.5-1.4c-4.9-1.4-9.6-3.5-13.5-6.6
			c-0.1-0.1-0.2-0.3-0.1-0.4C419.9,353.7,420,353.7,420.1,353.7z"/>
	</g>
	<g class="st13">
		<path class="st18" d="M415.1,381.8c1.4,0.4,2.8,0.9,4.2,1.4c1.4,0.5,2.7,1.1,4,1.6c1.3,0.6,2.6,1.2,3.9,1.8c1.3,0.6,2.6,1.2,3.8,2
			c2.5,1.5,4.8,3.4,7.5,4.1c2.7,0.9,5.6,0.9,8.4,0.5c2.8-0.5,5.5-1.2,8.2-1.9c2.7-0.8,5.3-1.9,7.9-2.8l4-1.5c1.3-0.5,2.6-1,3.9-1.6
			c2.6-1.1,5.2-2.4,7.9-3.6l0.2,0.3c-3.8,4.6-9,8-14.5,10.3c-2.7,1.1-5.6,2-8.6,2.5c-1.5,0.3-3,0.5-4.5,0.6c-1.5,0.1-3,0-4.5-0.1
			c-3-0.3-5.9-0.8-8.8-1.4c-1.4-0.3-3-0.6-4.4-1c-1.4-0.4-2.9-0.8-4.2-1.3c-2.7-1-5.3-2.5-7.8-4c-1.2-0.8-2.5-1.6-3.6-2.5
			c-1.2-0.9-2.3-1.9-3.3-2.9L415.1,381.8z"/>
	</g>
	<g class="st13">
		<path class="st18" d="M498.4,379.3c0.9-1,2-1.7,3.1-2.1c1.1-0.4,2.2-0.8,3.4-0.7c1.2,0.1,2.4,0.6,3.6,0.6c1.2,0.1,2.3-0.2,3.5-0.6
			c1.2-0.4,2.4-0.7,3.5-0.7c1.2-0.1,2.4-0.1,3.6,0.1c2.3,0.5,4.6,1.6,6.4,3.4l-0.1,0.4c-1.3,0.4-2.5,0.5-3.6,0.5
			c-1.1,0-2.2,0-3.3-0.1c-1.1-0.1-2.1-0.4-3.2-0.6c-1.1-0.2-2.2-0.5-3.3-0.9c-0.6-0.2-1.1-0.3-1.7-0.4c-0.6,0-1.1,0-1.7,0.1
			c-1.1,0.2-2.2,1-3.2,1.4c-0.5,0.2-1.1,0.3-1.6,0.4c-0.5,0.1-1.1,0.1-1.7,0.1c-1.1,0-2.3-0.1-3.6-0.5L498.4,379.3z"/>
	</g>
	<g class="st13">
		<path class="st18" d="M555.6,390.3c1.2,0.1,2.3,0.4,3.4,0.6c1.1,0.2,2.2,0.5,3.3,0.7l3.2,0.8c1.1,0.2,2.1,0.5,3.2,0.9
			c2.1,0.8,4.2,1.8,6.4,2.2c2.2,0.4,4.5,0.3,6.6-0.3c1.1-0.2,2.1-0.6,3.2-0.9c1-0.3,2.1-0.6,3.1-1c2-0.7,3.9-1.6,5.9-2.5
			c3.9-1.8,7.5-4,11.5-6.5l0.3,0.3c-1,2.1-2.5,4-4.2,5.7c-1.7,1.7-3.6,3.2-5.7,4.3c-2.1,1.2-4.4,1.9-6.8,2.4
			c-0.6,0.1-1.2,0.3-1.8,0.3c-0.6,0.1-1.2,0.2-1.8,0.2c-0.6,0-1.2,0-1.8,0c-0.6,0-1.2-0.1-1.8-0.1c-2.4-0.2-4.6-0.5-6.9-0.6
			c-2.3-0.1-4.7,0-7-0.3c-2.3-0.3-4.5-1-6.7-2c-1.1-0.5-2.1-1-3.1-1.7c-1-0.6-1.9-1.3-2.8-2.2L555.6,390.3z"/>
	</g>
	<g class="st13">
		<path class="st18" d="M640.5,372.3c1.3-0.9,2.9-1.3,4.4-1.3c0.8,0,1.5,0,2.3,0.1c0.8,0.1,1.5,0.3,2.2,0.7c1.4,0.7,2.5,1.9,3.6,2.8
			c1.2,0.9,2.4,1.5,3.8,2.3c1.4,0.7,2.6,1.7,3.6,2.9c0.5,0.6,1,1.2,1.4,1.8c0.2,0.3,0.4,0.6,0.6,0.9c0.2,0.3,0.4,0.7,0.5,1
			c1.2,2.8,1.7,6,0.8,9l-0.4,0.1c-1.6-2.6-2.9-4.9-4.2-7.1l-0.5-0.8l-0.5-0.9c-0.3-0.6-0.6-1.2-0.9-1.7l-2-3.5
			c-0.7-1.2-1.7-2.2-3-2.8c-1.2-0.6-2.7-0.6-4-0.7c-1.3-0.1-2.5-0.6-3.8-0.9c-1.3-0.4-2.6-0.7-4-1.4L640.5,372.3z"/>
	</g>
	<g class="st13">
		<path class="st18" d="M396.4,410.7c-1-0.3-2-0.7-2.9-1.3c-0.9-0.6-1.7-1.3-2.4-2.1c-1.4-1.6-2.5-3.6-2.9-5.7
			c-0.1-0.5-0.1-1.1-0.1-1.6c0-0.6,0-1.1,0.1-1.6c0.1-1.1,0.3-2.1,0.5-3.1c0.3-2,0.5-4,1-6.1c0.3-1,0.6-2.1,1.1-3
			c0.5-1,1.2-1.9,1.9-2.7c1.5-1.6,3.3-3,5.4-3.8c4.2-1.5,9-1,12.3,1.6l-0.1,0.4c-2,0-3.9,0.1-5.7,0.5c-1.8,0.3-3.4,0.9-4.9,1.5
			c-1.5,0.7-3.1,1.4-4.4,2.5c-0.7,0.5-1.3,1.1-1.9,1.8c-0.6,0.6-1.2,1.3-1.8,2.1c-1.1,1.5-1.8,3.4-1.8,5.3c0,0.9,0.2,1.9,0.4,2.8
			c0.3,0.9,0.7,1.7,1,2.5c0.3,0.8,0.7,1.6,1,2.4c0.4,0.8,0.7,1.6,1.2,2.4c0.4,0.8,0.9,1.6,1.4,2.4l1.6,2.5L396.4,410.7z"/>
	</g>
	<g>
		<path class="st18" d="M512.2,741c1,3.2,1.4,6.3,1.5,9.5c0.1,1.6,0.1,3.2-0.1,4.7c-0.2,1.6-0.5,3.2-0.8,4.8
			c-0.5,3.2-0.3,6.3,0.2,9.5c0.2,1.6,0.5,3.2,0.6,4.8c0.1,1.6,0.2,3.2,0.3,4.7l0,0.3l-0.2,0.5c-0.6,1.6-1.2,3.1-1.9,4.5
			c-0.8,1.5-1.7,2.9-2.8,4.2c-0.5,0.7-1.2,1.3-2,1.9l-0.7,0.4c-0.2,0.1-0.6,0.3-0.9,0.4c-0.2,0.1-0.2,0.1-0.3,0.1l-0.2,0
			c-0.2,0-0.3,0.1-0.5,0.1c-1.2,0.4-2.5,1.3-3.4,2.5l-0.4-0.1c0.2-1.7,1.1-3.4,2.6-4.6c0.2-0.1,0.4-0.3,0.6-0.4l0.3-0.2
			c0.1-0.1,0.2-0.1,0.2-0.2c0.1-0.1,0.1-0.1,0.2-0.2l0.3-0.3c0.4-0.5,0.7-1.1,1.1-1.7c0.7-1.3,1.3-2.7,2-4l2-4.1L510,779
			c0.1-1.6,0.2-3.2,0.3-4.7c0.1-1.6,0.4-3.2,0.6-4.8c0.5-3.2,0.7-6.3,0.2-9.5c-0.2-1.6-0.6-3.2-0.8-4.8c-0.2-1.6-0.1-3.2-0.1-4.7
			c0.2-3.2,0.5-6.3,1.5-9.5H512.2z"/>
	</g>
	<g>
		<path class="st18" d="M565.5,788.3c2.3-0.4,4.7-0.6,7.1-0.7c2.4-0.1,4.7-0.2,7.1-0.1c2.4,0,4.7,0.2,7.1,0.4
			c2.4,0.2,4.7,0.5,7.1,0.9l-0.3,0c0.1,0,0.3,0,0.4,0l0.2,0l0.3,0l0.5,0.1l1,0.2c0.7,0.1,1.3,0.3,2,0.5c1.3,0.4,2.6,0.7,3.9,1.2
			c2.5,0.9,5,2,7.4,3.4c2.4,1.4,4.6,2.9,6.6,4.9c1,1,1.9,2.1,2.6,3.3c0.4,0.6,0.7,1.2,0.9,1.8c0.3,0.7,0.5,1.3,0.6,2
			c0.3,1.3,0.5,2.7,0.5,4.1c-0.1,1.4-0.4,2.8-0.9,4.1c-1.1,2.6-2.8,4.8-4.7,6.7c-3.9,3.8-8.4,6.8-13.3,9.1
			c-4.9,2.3-10.1,3.9-15.3,5.1c-2.6,0.6-5.2,1-7.9,1.4c-2.6,0.4-5.2,0.7-7.9,0.9c-2.6,0.3-5.3,0.4-7.9,0.6c-2.6,0.1-5.3,0.2-7.9,0.2
			c-5.3,0.1-10.6-0.2-15.8-0.7l0-0.4l15.7-1.7c5.2-0.6,10.4-1.3,15.5-2c10.3-1.6,20.6-2.8,30.1-6.7c4.7-1.9,9.4-4.2,13.4-7.4
			c2-1.6,3.8-3.4,4.8-5.7c1.1-2.2,1.2-4.8,0.5-7.3c-0.2-0.6-0.4-1.2-0.6-1.8c-0.3-0.6-0.6-1.1-0.9-1.6c-0.7-1-1.6-1.9-2.6-2.7
			c-2-1.6-4.3-2.7-6.6-3.7c-2.4-1-4.8-1.8-7.2-2.5c-1.2-0.4-2.5-0.7-3.7-1l-1.9-0.5l-0.9-0.2l-0.5-0.1l-0.2,0c0,0-0.1,0-0.1,0
			c0.1,0,0.1,0,0.2,0l-0.3,0c-2.3-0.4-4.6-0.8-6.8-1.2c-2.3-0.3-4.6-0.7-6.9-1c-2.3-0.3-4.6-0.5-6.9-0.8l-7-0.6L565.5,788.3z"/>
	</g>
</g>
<g id="Outline">
	<g>
		<path class="st20" d="M559.4,717.3c0,2-0.5,4-1.4,5.7c-0.9,1.7-2.1,3.2-3.4,4.5c-2.7,2.6-5.8,4.3-9.1,5.6
			c-3.2,1.4-6.7,2.2-10.1,2.7c-3.4,0.6-6.9,0.7-10.3,0.7c-0.2,0.1-0.4,0.2-0.6,0.2c-0.2,0-0.4,0-0.6,0l-1.3,0c-0.9,0-1.7,0-2.6,0
			c-1.7-0.1-3.5-0.2-5.2-0.4c-3.4-0.5-6.9-1.2-10.2-2.5c-3.3-1.2-6.5-2.8-9.4-5.1c-1.4-1.2-2.7-2.5-3.8-4.1
			c-1.1-1.6-1.9-3.4-2.3-5.4c-0.2-1-0.2-2-0.1-3c0.1-0.5,0.1-1,0.2-1.5l0.4-1.5c0.1-0.5,0.4-0.9,0.6-1.4c0.2-0.5,0.4-0.9,0.8-1.3
			l0.9-1.2l1-1l0.5-0.5l0.6-0.4l1.1-0.9c0.8-0.5,1.6-1,2.4-1.4c1.6-0.8,3.3-1.5,5-2c6.8-2,13.8-2.3,20.7-2.2
			c6.9-0.1,13.8,0.3,20.6,2c3.4,0.9,6.8,2.1,9.9,4.3c1.5,1.1,3,2.5,4,4.2C558.8,713.2,559.3,715.2,559.4,717.3z M555.6,717.3
			c0-2.8-1.6-5.2-4.1-7.1c-2.4-1.9-5.5-3.2-8.6-4.2c-6.3-2-13-2.8-19.8-3c-6.7,0.2-13.5,0.9-19.7,3.1c-3,1.1-6,2.6-8,4.8l-0.7,0.8
			l-0.6,0.9c-0.2,0.3-0.3,0.6-0.5,0.9c-0.1,0.3-0.3,0.6-0.4,1l-0.2,1c-0.1,0.3-0.1,0.7-0.1,1c-0.1,0.7,0,1.4,0.1,2.1
			c0.3,2.7,2,5.4,4.3,7.5c2.3,2.1,5.1,3.8,8.2,5.1c3,1.4,6.2,2.3,9.4,3c1.6,0.3,3.3,0.6,5,0.8c0.8,0.1,1.7,0.2,2.5,0.2l1.3,0.1
			c0.2,0,0.4,0,0.6,0c0.2,0,0.4,0.2,0.6,0.2c6.7-0.3,13.5-1.7,19.3-4.7c3-1.4,5.7-3.3,7.8-5.6C554.3,722.9,555.7,720.1,555.6,717.3z
			"/>
	</g>
	<g>
		<path class="st20" d="M654,388.8c-2.4,2.6-5.4,5.5-8.6,8.4c-0.8,0.7-1.6,1.4-2.5,2.1c-0.8,0.7-1.8,1.4-2.4,2
			c-1.4,1.2-2.8,2.4-4.2,3.6c-5.5,4.9-10.6,10.2-15.3,16c-1.1,1.5-2.3,2.9-3.4,4.5l-3.2,4.6c-1,1.6-1.9,3.2-2.9,4.8
			c-1,1.6-1.7,3.3-2.6,5c-3.3,6.8-6.1,13.8-8.4,21c-2.3,7.2-4.2,14.6-5.8,22c-1.6,7.4-2.8,15-3.7,22.5c-1.9,15.1-2.7,30.4-2.8,45.7
			c0,7.6,0.1,15.3,0.4,22.9c0.1,3.8,0.3,7.6,0.5,11.5c0.2,3.8,0.5,7.6,0.6,11.5c0.2,7.7,0,15.5-0.6,23.1c-0.3,3.8-0.7,7.7-1.2,11.5
			c-0.5,3.8-1.1,7.6-1.7,11.4c-0.6,3.8-1.3,7.6-2.1,11.4c-0.8,3.8-1.7,7.6-2.9,11.3c-1.2,3.7-2.6,7.4-4.5,10.8
			c-1.9,3.4-4.3,6.7-7.1,9.4c-0.7,0.7-1.4,1.4-2.2,2l-2.4,1.8c-1.6,1.1-3.2,2.2-4.8,3.2c-3.3,2.1-6.7,4-10.3,5.5
			c-3.6,1.6-7.3,2.9-11.1,3.7c-1,0.2-1.9,0.4-2.9,0.5c-1,0.1-1.9,0.3-2.9,0.3c-2,0.2-3.9,0-5.9,0.1c-3.8,0-7.6,0.1-11.5-0.1
			c-3.9-0.2-7.8-0.6-11.6-1.4c-3.8-0.8-7.6-2.1-11.1-3.8c-1.8-0.8-3.5-1.8-5.1-2.9c-1.6-1.1-3.2-2.3-4.7-3.6l-1.1-0.9l-1.1-0.8
			c-0.8-0.6-1.6-1.2-2.4-1.8l-2.2-2c-0.7-0.7-1.3-1.5-2-2.2c-2.6-3-4.6-6.4-6.3-10c-3.3-7.1-5.1-14.8-6.6-22.3
			c-0.7-3.8-1.3-7.6-1.9-11.4c-0.6-3.8-1.2-7.6-1.6-11.4c-0.9-7.7-1.4-15.4-1.6-23.1c-0.1-3.9,0-7.7,0.2-11.6l0.7-11.5
			c0.4-7.6,0.7-15.3,0.8-22.9c0.2-15.3-0.3-30.6-1.8-45.7c-1.5-15.2-4-30.2-8-44.9c-4-14.6-9.6-28.8-17.7-41.6c-1-1.6-2-3.2-3.1-4.7
			c-1.1-1.5-2.2-3-3.3-4.5c-2.3-2.9-4.8-5.7-7.4-8.4c-1.3-1.3-2.7-2.6-4.1-3.8c-1.4-1.3-2.8-2.4-4.3-3.5c-1.5-1.1-3-2-4.6-3
			l-2.5-1.4c-0.4-0.2-0.8-0.5-1.4-0.8c-0.6-0.3-0.3-1.4-0.8-2l-0.8-1l0.7-0.8c0.2-0.2,0.4-0.5,0.6-0.7l0.6-0.6l0.4-0.4l0.6,0
			c1.3,0.1,2.5,0.1,3.8,0.1c1.3,0,2.5,0,3.8-0.1l3.8-0.1c1.3,0,2.5,0,3.8,0l0.6,0l0.4,0.3c2,1.8,3.9,3.4,6.1,4.9
			c2.1,1.5,4.4,2.8,6.7,4c4.6,2.4,9.7,4,15.1,4.2c2.6,0.1,5.3-0.1,7.9-0.5c2.6-0.3,5.3-0.7,7.9-1.2c5.2-0.9,10.4-2.3,14.9-5.1
			c2.3-1.3,4.4-3,6.3-4.8c1-0.9,1.9-1.8,3-2.7c1.1-0.8,2.2-1.6,3.4-2.2c4.8-2.6,10.2-3.6,15.5-4.1c2.7-0.2,5.4-0.3,8.1-0.1
			c2.7,0.2,5.3,0.5,8,1c5.3,0.9,10.4,2.4,15.5,4.2l7.4,3c2.4,1.1,4.8,2.4,7,3.8c2.3,1.4,4.4,3,6.8,4.1c2.4,1.2,4.9,1.9,7.5,2.5
			c5.1,1.2,10.5,1.9,15.8,1.6c5.3-0.2,10.6-1.3,15.5-3.2c2.5-0.9,4.8-2.2,7-3.7c2.2-1.5,4.3-3.1,6.5-4.7c2.1-1.6,4.4-3,6.7-4.3
			c2.4-1.2,4.8-2.3,7.3-3.3c2.5-1,5-1.8,7.6-2.5c2.6-0.7,5.3-1.1,8-1.2c2.7-0.1,5.5,0.2,8.2,1.3c1.3,0.5,2.5,1.2,3.7,1.9
			c0.6,0.4,1.2,0.8,1.7,1.2c0.3,0.2,0.6,0.4,0.8,0.7c0.2,0.2,0.2,0.1,0.6,0.6C653.7,387.9,653.9,388.4,654,388.8z M651,388.5
			c-0.1,0.2-0.2,0.4-0.1,0.6c0.2,0.2,0,0-0.1-0.1c-0.2-0.2-0.4-0.4-0.6-0.7c-0.4-0.4-0.9-0.8-1.4-1.2c-1-0.8-2.1-1.5-3.2-2.1
			c-2.2-1.1-4.7-1.6-7.3-1.7c-5.2-0.2-10.4,1.1-15.4,2.8c-5,1.7-9.8,4-14.2,7.1c-2.2,1.5-4.3,3.2-6.5,4.6c-2.2,1.4-4.6,2.7-7.1,3.6
			c-4.9,2-10.2,3.1-15.5,3.4c-5.3,0.3-10.7-0.3-15.9-1.4c-2.6-0.6-5.2-1.2-7.7-2.4c-2.5-1.1-4.7-2.7-6.9-4c-2.3-1.4-4.6-2.6-7-3.6
			l-7.4-2.8c-10-3.5-20.5-5.6-31-4.9c-2.6,0.2-5.2,0.5-7.8,1.1c-2.6,0.6-5.1,1.3-7.4,2.5c-2.4,1.1-4.4,2.8-6.4,4.6
			c-2,1.8-4.2,3.4-6.5,4.6c-2.3,1.3-4.8,2.3-7.3,3.1c-2.5,0.8-5.2,1.3-7.8,1.8c-5.3,0.7-10.5,1.8-15.8,1.9
			c-5.3,0.2-10.8-0.9-15.8-2.9c-2.5-1-5-2.2-7.3-3.5c-2.4-1.3-4.6-3-6.7-4.7l1,0.4c-1.3,0-2.5,0-3.8,0l-3.8-0.1
			c-1.3,0-2.5-0.1-3.8-0.1c-1.3,0-2.5,0-3.8,0.1l1-0.4l-0.4,0.4c-0.1,0.1-0.2,0.3-0.3,0.4l-0.1-1.8c0.1,0.1,1.2-0.5,1.4-0.2l1.1,0.7
			l2.5,1.4c1.7,1,3.4,2.1,5,3.3c1.6,1.2,3.2,2.5,4.6,3.8c1.4,1.3,2.9,2.6,4.3,4.1c2.8,2.8,5.3,5.8,7.8,8.9c1.2,1.6,2.3,3.2,3.5,4.8
			c1.2,1.6,2.1,3.3,3.2,4.9c8.3,13.3,13.9,28,18,42.9c4,15,6.3,30.3,7.7,45.7c1.4,15.4,1.7,30.8,1.3,46.2c-0.2,7.7-0.5,15.4-1,23.1
			l-0.8,11.5c-0.2,3.8-0.3,7.6-0.3,11.4c0,7.6,0.5,15.2,1.3,22.8c0.4,3.8,1,7.6,1.5,11.4c0.6,3.8,1.1,7.6,1.8,11.3
			c1.4,7.5,3.2,14.9,6.3,21.7c1.6,3.4,3.5,6.6,5.9,9.4c0.6,0.7,1.2,1.4,1.9,2.1l2,1.9l2.2,1.7l1.2,0.9l1.1,0.9
			c5.6,5,12.5,8.2,19.9,9.9c3.7,0.9,7.4,1.2,11.2,1.4c3.7,0.2,7.6,0.1,11.5,0.1c1.9,0,3.8,0.1,5.6-0.1c0.9,0,1.9-0.2,2.8-0.3
			c0.9-0.1,1.8-0.3,2.8-0.5c3.7-0.8,7.2-2,10.7-3.6c3.4-1.5,6.8-3.4,10-5.4c1.6-1,3.2-2.1,4.7-3.2l2.2-1.7c0.7-0.6,1.4-1.3,2.1-1.9
			c2.6-2.6,4.8-5.6,6.7-8.9c1.8-3.3,3.2-6.8,4.3-10.4c2.3-7.2,3.6-14.8,4.8-22.3c0.6-3.8,1.1-7.6,1.6-11.4c0.5-3.8,0.9-7.6,1.1-11.4
			c0.6-7.6,0.7-15.2,0.5-22.8c-0.1-3.8-0.5-7.6-0.7-11.4c-0.3-3.8-0.5-7.7-0.7-11.5c-0.4-7.7-0.6-15.4-0.7-23.1
			c-0.1-15.4,0.5-30.8,2.2-46.2c0.9-7.7,2-15.3,3.5-22.9c1.5-7.6,3.4-15.1,5.6-22.5c2.3-7.4,5.1-14.7,8.4-21.8
			c3.3-7,6.9-14.1,11.4-20.6c4.4-6.5,9.8-12.6,15.9-17.6c1.6-1.2,3.2-2.4,4.8-3.6c0.9-0.6,1.5-1,2.2-1.4c0.7-0.4,1.4-0.8,2.2-1.2
			C643.8,391.8,647.2,390.4,651,388.5z"/>
	</g>
	<path class="st21" d="M400.8,393c-0.2,0.2-0.4,0.4-0.6,0.7"/>
	<g>
		<path class="st20" d="M668.3,400.7c-1.8,3.3-4.1,6.5-7.2,8.9c-3.1,2.4-6.8,3.8-10.4,4.8c-1.8,0.5-3.7,0.9-5.6,1
			c-1.9,0.1-4,0.1-6.1-0.7c-2-0.9-3.6-2.2-4.8-3.9c-1.2-1.6-2.1-3.5-2.6-5.4l0,0l-0.2-0.6l0.3-0.5c0.9-1.6,1.8-3.1,2.9-4.6
			c0.6-0.7,1.2-1.5,2.2-2.1c0.5-0.3,1-0.6,1.8-0.7c0.7-0.1,1.6,0.1,2.1,0.6c1.1,1,1.3,1.9,1.7,2.7c0.3,0.8,0.7,1.5,1.1,2.1
			c0.4,0.5,0.9,0.8,1.5,0.9c0.6,0.1,1.4,0,2.1-0.2c1.5-0.5,2.9-1.3,4.1-2.4c1.2-1.1,2.2-2.4,2.7-3.9c0.1-0.4,0.2-0.7,0.3-1.1
			c0.1-0.4,0.1-0.8,0.1-1.1c0-0.8-0.2-1.5-0.5-2.3c-0.6-1.5-1.6-2.8-2.9-3.9c-1.2-1.1-2.6-2.1-4.1-2.9c-1.5-0.8-3-1.4-4.7-1.6
			c-3.3-0.5-6.8-0.3-10.1,0.4c-3.4,0.7-6.7,1.7-9.9,3c-3.2,1.3-6.3,2.8-9.2,4.7c-2.9,1.8-5.5,4.1-8.4,6.2c-2.9,2.1-6,4-9.4,5.4
			c-6.7,2.7-14.1,3.7-21.3,3.3c-3.6-0.2-7.2-0.8-10.7-1.6c-1.7-0.4-3.5-0.9-5.2-1.5c-1.7-0.6-3.4-1.5-5-2.5c-1.6-1-3-2-4.4-2.9
			c-1.4-0.9-2.9-1.8-4.4-2.6c-0.8-0.4-1.5-0.8-2.3-1.1l-2.4-1l-4.8-2c-3.2-1.2-6.5-2.3-9.9-3.2c-3.3-0.9-6.7-1.5-10.1-1.9
			c-6.8-0.8-13.8-0.5-20.4,1.3c-3.3,0.9-6.4,2.4-9,4.5c-1.3,1-2.5,2.3-3.9,3.5c-1.4,1.2-2.8,2.3-4.3,3.2c-3,1.9-6.4,3.4-9.8,4.4
			c-3.5,1-7,1.6-10.4,2.1c-3.5,0.5-7,1.1-10.6,1.2c-3.6,0.1-7.3-0.2-10.8-1.2c-3.5-0.9-6.8-2.3-10-4c-3.2-1.7-6.2-3.6-9-5.9
			c-1.4-1.1-2.7-2.3-3.9-3.1c-0.6-0.4-1.3-0.6-2-0.7c-0.7-0.1-1.5-0.2-2.2-0.1c-1.5,0.1-3.1,0.5-4.4,1.2c-1.4,0.7-2.6,1.7-3.1,2.8
			c-0.3,0.5-0.3,1.1-0.2,1.6c0.1,0.6,0.4,1.2,0.8,1.8c0.9,1.2,2.1,2.4,3.3,3.6c1.3,1.2,2.5,2.3,3.8,3.3c1.3,1,2.7,1.9,4.2,2.7l0.1,0
			l-1.6,0.1l5.1-3l0.1,0l0.6-0.4l0.4,0.5l9.4,10.5l0,0l0.4,0.5l-0.3,0.5c-1.1,1.8-2.4,3.6-4,5c-1.6,1.4-3.6,2.6-5.8,3.2
			c-4.4,1.2-9,0.4-12.9-1.3c-4-1.7-7.6-4.2-10.7-7.1c-3.1-3-5.7-6.4-7.7-10.3c-1-1.9-1.8-4-2.3-6.1c-0.6-2.1-1-4.3-1-6.6
			c0-2.3,0.3-4.6,1.1-6.8c0.8-2.2,2-4.2,3.5-6c1.5-1.7,3.3-3.2,5.3-4.3c1-0.6,2-1.1,3-1.5c1-0.4,2-0.8,3.1-1.2
			c2.1-0.7,4.3-1.1,6.5-1.2c2.2-0.2,4.5,0,6.6,0.6c0.5,0.1,1.1,0.3,1.6,0.5c0.5,0.2,1.1,0.4,1.6,0.6c1,0.4,2.1,1,3,1.7
			c0.9,0.7,1.7,1.5,2.4,2.2c0.7,0.7,1.4,1.4,2.1,2c3,2.4,6.5,4.3,10.3,5.3c3.8,1.1,7.8,1.4,11.9,1.7c4,0.3,8,0.2,11.9-0.5
			c3.9-0.7,7.7-2,11.3-3.7c3.7-1.7,7.1-3.7,10.6-5.9c1.8-1.1,3.5-2.1,5.4-3.1c1.8-1,3.8-2,5.8-2.7c4-1.5,8.3-2.2,12.5-2.5
			c4.2-0.2,8.4-0.1,12.6,0.4c4.1,0.4,8.2,1.1,12.3,1.8c2.1,0.4,4.2,1,6.2,1.7c2,0.7,3.9,1.6,5.8,2.5c3.7,1.9,7.3,3.8,10.9,6
			c1.8,1.1,3.5,2.2,5.2,3.3c1.7,1,3.5,2,5.3,2.8c3.6,1.6,7.5,2.7,11.4,3.3c3.9,0.5,7.9,0.4,11.8-0.3c3.9-0.7,7.7-2,11.3-3.7
			c3.6-1.7,6.8-4,10.1-6.5c3.3-2.5,6.7-4.9,10.2-7c3.6-2.2,7.7-3.7,11.9-4.4c1.1-0.2,2.1-0.3,3.1-0.4l1.5-0.1c0.4,0,1-0.1,1.4-0.2
			c1-0.2,2-0.3,3.1-0.4c1.1-0.1,2.2-0.1,3.2-0.1c2.1,0,4.2,0.2,6.2,0.3l3.1,0.2c0.5,0,1,0.1,1.6,0.2c0.6,0,1.1,0.2,1.6,0.3
			c2.2,0.5,4.3,1.6,6,3c1.7,1.4,3.1,3,4.5,4.7c1.3,1.7,2.5,3.3,3.7,5c1.2,1.7,2.4,3.7,3,5.8c0.7,2.1,0.9,4.3,0.9,6.5
			c-0.1,1.1-0.2,2.2-0.4,3.3c-0.1,0.5-0.2,1.1-0.4,1.6c-0.1,0.3-0.2,0.5-0.3,0.8C668.6,400.1,668.5,400.3,668.3,400.7z M665.7,399.3
			c0-0.1,0.1-0.3,0.2-0.5c0.1-0.2,0.1-0.4,0.2-0.7c0.1-0.4,0.2-0.9,0.3-1.4c0.2-0.9,0.3-1.9,0.3-2.8c0.1-1.9-0.2-3.8-0.7-5.6
			c-0.5-1.8-1.4-3.4-2.6-5c-1.2-1.7-2.3-3.3-3.6-4.9c-1.2-1.6-2.5-3.1-4-4.2c-1.5-1.2-3.1-2.1-4.9-2.5c-0.5-0.1-0.9-0.2-1.4-0.3
			c-0.5-0.1-0.9-0.1-1.4-0.2l-3.1-0.3c-2-0.2-4.1-0.3-6.1-0.4c-2-0.1-3.8,0.1-5.9,0.5c-0.5,0.1-1,0.2-1.6,0.2l-1.5,0.1
			c-1,0.1-2,0.2-3,0.3c-3.9,0.6-7.6,2-11,4c-3.4,2.1-6.8,4.4-10,6.9c-1.6,1.2-3.3,2.5-5,3.6c-1.7,1.2-3.6,2.2-5.5,3.1
			c-3.8,1.8-7.8,3.2-12,3.9c-2.1,0.4-4.2,0.6-6.3,0.7c-2.1,0.1-4.2,0-6.3-0.3c-4.2-0.5-8.3-1.6-12.2-3.3c-1.9-0.8-3.8-1.7-5.7-2.8
			c-1.8-1-3.5-2.1-5.3-3.1c-3.5-2-7.1-3.8-10.8-5.6c-1.8-0.8-3.7-1.6-5.5-2.3c-1.9-0.7-3.7-1.1-5.7-1.5c-8-1.4-16-2.4-24-2
			c-2,0.1-4,0.3-5.9,0.6c-1.9,0.3-3.8,0.7-5.7,1.3c-3.6,1.2-7.3,3.1-10.8,5.1c-1.8,1-3.6,2-5.4,3c-1.8,1-3.7,1.9-5.6,2.7
			c-1.9,0.8-3.8,1.6-5.8,2.3c-2,0.7-4.1,1.2-6.1,1.5c-4.1,0.7-8.4,0.9-12.5,0.7c-4.1-0.3-8.3-0.5-12.4-1.6
			c-4.1-1.1-8.1-2.9-11.5-5.6c-1.7-1.3-3.1-3-4.5-4c-0.7-0.5-1.5-0.9-2.3-1.3c-0.4-0.2-0.9-0.3-1.3-0.4c-0.4-0.1-0.9-0.3-1.4-0.3
			c-3.6-0.8-7.5-0.3-11.1,1.1c-0.9,0.3-1.7,0.7-2.6,1.2c-0.9,0.4-1.7,0.9-2.4,1.4c-1.5,1-2.9,2.2-4.1,3.6c-1.2,1.4-2,2.9-2.7,4.6
			c-0.6,1.7-0.9,3.4-0.9,5.3c0,1.8,0.3,3.7,0.7,5.5c0.5,1.9,1.1,3.7,1.9,5.4c1.6,3.5,4,6.7,6.7,9.5c2.7,2.8,5.9,5.2,9.3,6.9
			c1.7,0.8,3.6,1.5,5.4,1.8c1.9,0.3,3.8,0.4,5.6,0c3.7-0.7,6.8-3.4,9-6.6l0.1,1l0,0l-9.3-10.5l1.1,0.1l0,0l-4.3,4.1l-0.7,0.6
			l-0.9-0.5l-0.1,0c-1.6-0.9-3.1-1.9-4.6-3c-1.5-1.1-2.8-2.4-4.1-3.6c-1.3-1.2-2.6-2.5-3.7-4.1c-0.6-0.8-1.1-1.8-1.3-2.9
			c-0.2-1.1-0.1-2.4,0.4-3.5c0.1-0.3,0.3-0.5,0.4-0.7l0.2-0.3l0.3-0.3c0.4-0.4,0.7-0.8,1.1-1.1c0.8-0.7,1.6-1.2,2.5-1.7
			c1.7-0.9,3.6-1.4,5.6-1.5c1-0.1,2,0,3,0.2c1,0.2,2,0.6,2.9,1.1c1.7,1,3,2.3,4.3,3.4c2.6,2.2,5.4,4,8.5,5.7c3,1.6,6.2,2.9,9.4,3.8
			c3.2,0.9,6.6,1.3,10,1.1c3.4-0.1,6.8-0.6,10.3-1.1c3.5-0.5,6.9-1,10.1-1.9c3.3-0.9,6.4-2.2,9.3-3.9c1.5-0.9,2.8-1.8,4.1-2.9
			c1.3-1.1,2.6-2.3,4-3.4c1.4-1.1,3-2.1,4.6-2.8c1.6-0.8,3.3-1.4,5.1-1.9c3.5-1,7-1.5,10.5-1.7c3.5-0.3,7.1-0.2,10.6,0.1
			c7.1,0.7,14,2.4,20.7,4.7l5,1.9l2.5,0.9c0.8,0.4,1.6,0.7,2.4,1.1c1.6,0.8,3.2,1.7,4.7,2.6c1.5,0.9,3,1.9,4.4,2.7
			c2.9,1.7,6,2.7,9.3,3.4c3.3,0.7,6.7,1.2,10.1,1.4c6.7,0.4,13.5-0.4,19.9-2.7c3.2-1.1,6.2-2.6,9-4.5c2.8-1.9,5.7-4.1,8.8-5.8
			c3.1-1.8,6.4-3.2,9.7-4.4c3.3-1.2,6.7-2.2,10.2-2.9c3.5-0.6,7.1-0.9,10.7-0.4c1.8,0.3,3.6,0.9,5.2,1.8c1.6,0.9,3.1,1.9,4.5,3.1
			c1.4,1.2,2.6,2.7,3.3,4.5c0.4,0.9,0.6,1.9,0.6,2.8c0,0.5,0,1-0.1,1.5c0,0.5-0.2,1-0.3,1.4c-0.6,1.9-1.7,3.4-3,4.8
			c-1.3,1.3-2.9,2.4-4.8,3c-0.9,0.3-1.9,0.5-3,0.4c-0.6-0.1-1.1-0.2-1.6-0.5c-0.5-0.3-1-0.7-1.3-1.1c-0.7-0.8-1.1-1.7-1.5-2.5
			c-0.4-0.8-0.8-1.5-1.1-1.7c-0.1-0.1-0.2-0.1-0.3-0.1c-0.1,0-0.4,0.1-0.6,0.3c-0.5,0.4-1,1-1.5,1.6c-0.9,1.3-1.7,2.8-2.4,4.4
			l0.1-1.1l0,0c0.5,1.6,1.2,3.1,2.1,4.4c1,1.3,2.2,2.3,3.6,2.9c1.3,0.5,3,0.6,4.7,0.5c1.7-0.1,3.4-0.5,5.1-0.9
			c3.4-0.9,6.6-2.2,9.3-4.2C661.9,405.2,664,402.4,665.7,399.3z"/>
	</g>
	<g>
		<path class="st20" d="M552,800c-0.7,0.3-1.5,0.5-2.2,0.7l-1.7,0.4c-1.1,0.3-2.3,0.5-3.4,0.8c-2.3,0.5-4.6,0.9-6.9,1.2
			c-4.6,0.7-9.3,1-13.9,0.9c-4.6,0-9.3-0.3-13.9-0.9c-4.6-0.7-9.2-1.6-13.6-2.9l0,0l-0.7-0.2l-0.3-0.4c-0.5-0.8-0.9-1.5-1.3-2.2
			c-0.4-0.7-0.7-1.5-0.9-2.3c-0.5-1.6-0.8-3.3-0.6-5c0.1-1.7,1-3.4,2-4.6c0.5-0.7,1.2-1.1,1.7-1.7c0.6-0.4,1.1-0.9,1.6-1.3
			c1.9-1.9,3.4-4.5,4-7.2c0.3-1.4,0.4-2.8,0.5-4.1c0-0.7,0.1-1.4,0.1-2l0-2.1c-0.1-5.8-0.2-11.7-0.2-17.5c0-2.9,0-5.8,0-8.7l0-4.4
			l0-2.2c0-0.7,0.1-1.5,0.6-2.2l0,0l0.8-1.2l0.5,0.3c1.5,0.8,3,1.6,4.6,2.2c1.6,0.6,3.2,1.1,4.9,1.5c3.3,0.8,6.7,1.1,10.2,1.2
			c3.4,0,6.8-0.3,10.2-0.9c3.4-0.6,6.6-1.6,9.7-3c0,0,0,0,0,0l0.4,0.3c1.3,0.7,0.9,1.5,1,2.2l0,2.2l0.1,4.4c0.1,2.9,0,5.8,0.1,8.7
			c0,5.8-0.1,11.6-0.2,17.4l0,2.1c0,0.7,0.1,1.4,0.1,2.1c0.1,1.4,0.2,2.8,0.6,4.2c0.6,2.8,2.2,5.2,4.1,7.2c0.5,0.5,1,0.9,1.6,1.3
			c0.6,0.5,1.2,1,1.7,1.7c1.1,1.2,1.8,2.9,2,4.6c0.2,1.7-0.1,3.4-0.6,4.9c-0.3,0.8-0.6,1.5-0.9,2.3c-0.2,0.4-0.4,0.7-0.6,1.1
			c-0.1,0.2-0.2,0.4-0.3,0.5l-0.2,0.3l-0.1,0.1l0,0l-0.1,0.1l-0.2,0.2C552.3,799.8,552.1,799.9,552,800z M549.8,796.5
			c-0.1,0.1-0.2,0.1-0.3,0.2c0,0-0.1,0.1-0.1,0.1l0,0.1l0,0l0.1-0.1l0.2-0.2c0.1-0.1,0.2-0.2,0.3-0.3c0.2-0.2,0.4-0.5,0.6-0.7
			c0.4-0.5,0.7-1,1.1-1.6c0.6-1.1,1-2.3,1-3.5c0-1.2-0.3-2.4-1.1-3.4c-0.3-0.6-0.8-1-1.3-1.5c-0.6-0.5-1.1-1.1-1.6-1.6
			c-1-1.1-1.9-2.4-2.6-3.8c-0.7-1.3-1.3-2.7-1.8-4.1c-0.6-1.4-1.1-2.8-1.4-4.3c-0.2-0.7-0.3-1.5-0.3-2.3c0-0.2,0-0.4,0-0.6l0-0.5
			l0-1.1c-0.1-5.8-0.1-11.6-0.1-17.4c0-2.9,0-5.8,0.1-8.7l0.1-4.4l0.1-2.2c0.1-0.7-0.3-1.5,1-2.2l0.4,0.3c0,0,0,0,0,0
			c-3.2,1.2-6.6,2.1-9.9,2.6c-3.4,0.6-6.8,0.8-10.2,0.8c-3.4,0-6.8-0.3-10.2-0.7c-1.7-0.3-3.4-0.6-5.1-0.9c-1.7-0.3-3.3-0.9-5.1-1.4
			l1.4-0.9l0,0c0.5,0.7,0.6,1.5,0.6,2.2l0,2.2l0.1,4.4c0.1,2.9,0,5.8,0.1,8.7c0,5.8-0.1,11.7-0.1,17.5l0,1.1l0,0.5
			c0,0.2,0,0.4,0,0.6c-0.1,0.8-0.2,1.6-0.3,2.3c-0.3,1.5-0.8,3-1.4,4.4c-0.6,1.4-1.2,2.8-2,4.1c-0.7,1.3-1.6,2.6-2.6,3.8
			c-0.5,0.6-1.1,1.1-1.6,1.6c-0.4,0.5-1,0.9-1.3,1.5c-0.7,1-1.1,2.2-1.1,3.4c0,1.2,0.4,2.4,1,3.5c0.3,0.6,0.7,1.1,1.1,1.6
			c0.4,0.5,0.9,1,1.3,1.4l-1-0.6l0,0c4.3,1.2,8.7,2.2,13.1,2.8c4.4,0.6,8.8,0.9,13.3,0.9c4.5,0,8.9-0.3,13.3-0.9
			c2.2-0.3,4.4-0.7,6.6-1.2c1.1-0.2,2.2-0.5,3.3-0.8l1.6-0.4C549.1,796.6,549.4,796.5,549.8,796.5z"/>
	</g>
	<g>
		<path class="st20" d="M627.5,821.5c-4.7,4.7-10.2,8.4-16.2,11.2c-6,2.8-12.2,4.8-18.6,6.6c-12.6,3.4-25.6,5.7-38.6,6.7
			c-26.1,2.2-52.5,0.4-78.1-4.6c-6.4-1.3-12.8-2.8-19.1-4.9c-6.3-2.1-12.4-4.8-17.9-8.7c-2.7-1.9-5.3-3.9-7.8-6.1
			c-2.5-2.2-4.8-4.6-6.9-7.4c-2-2.7-3.7-5.9-4-9.7c-0.1-1.8,0.2-3.7,1.1-5.4c0.8-1.7,2.1-3.1,3.4-4.2c2.6-2.3,5.6-3.9,8.6-5.4
			c3-1.4,6-2.7,9.1-3.8c6.2-2.2,12.7-3.6,19.2-4.5c13-1.6,26-2,39.1-1.9l0,0l0.8,0l-0.4,0.7c-1,1.6-2.1,3-3.5,4.2
			c-0.4,0.3-0.7,0.6-1,0.9c-0.3,0.3-0.7,0.6-0.9,0.9c-0.5,0.7-1,1.4-1.2,2.2c-0.6,1.6-0.4,3.4,0.1,5c0.6,1.6,1.4,3.2,2.5,4.5l0,0
			l-0.2-0.1c4.3,1.4,8.7,2.4,13.2,3.1c4.5,0.7,9,1,13.6,1c4.5,0,9.1-0.3,13.6-1c4.5-0.7,8.9-1.7,13.2-3.1l0,0l-0.2,0.1
			c1.2-1.3,2.3-2.9,2.8-4.7c0.6-1.7,0.7-3.7,0-5.4c-0.2-0.4-0.4-0.9-0.7-1.2c-0.3-0.4-0.5-0.8-0.9-1.1l-1-1
			c-0.4-0.3-0.7-0.6-1.1-0.9c-1.3-1.3-2.5-2.8-3.4-4.4l0,0l-0.1-0.2l0.3,0c2.4-0.2,4.8-0.3,7.2-0.4c1.2,0,2.4-0.1,3.6-0.1l3.6,0
			c4.8-0.1,9.7,0.3,14.5,0.8c9.7,1.1,19.1,3.6,28.3,6.4c4.6,1.4,9.3,2.8,13.8,4.6c2.3,0.9,4.5,2,6.6,3.1c2.2,1.1,4.3,2.2,6.4,3.5
			c2,1.3,4.1,2.9,5.4,5.3c1.2,2.4,1.1,5.2,0.2,7.6c-0.8,2.4-2.3,4.5-3.8,6.4C631,818.1,629.3,819.8,627.5,821.5z M626.5,820.5
			c1.7-1.7,3.4-3.4,4.9-5.2c1.5-1.8,2.8-3.8,3.6-6c0.8-2.1,0.8-4.5-0.1-6.5c-1-2-2.9-3.5-4.8-4.8c-2-1.3-4.1-2.4-6.3-3.4
			c-2.2-1.1-4.3-2.1-6.5-3c-4.4-1.8-9-3.2-13.7-4.6c-4.6-1.4-9.3-2.7-13.9-3.8c-4.7-1.1-9.4-2-14.2-2.7c-4.8-0.6-9.6-1-14.4-0.9
			c-4.8-0.1-9.6,0.1-14.5-0.2l0.1-0.2l0,0c0.8,1.7,1.8,3.3,3.1,4.6c0.3,0.3,0.7,0.6,1,0.9l1,0.9c0.3,0.3,0.6,0.7,0.9,1.1
			c0.3,0.4,0.5,0.8,0.7,1.2c0.8,1.7,0.7,3.7,0.2,5.5c-0.5,1.8-1.4,3.5-2.5,5.1l-0.1,0.1l-0.1,0l0,0c-4.4,1.1-8.9,2-13.4,2.5
			c-4.5,0.6-9.1,0.9-13.6,0.8c-4.5,0.1-9.1-0.2-13.6-0.8c-4.5-0.6-9-1.5-13.4-2.5l-0.1,0l-0.1-0.1l0,0c-1.2-1.4-2.1-3-2.7-4.8
			c-0.6-1.7-0.7-3.7-0.1-5.5c0.3-0.9,0.8-1.7,1.4-2.4c0.3-0.4,0.6-0.7,1-1c0.3-0.3,0.7-0.6,1-0.9c1.3-1.2,2.4-2.5,3.2-4.1l0.4,0.7
			l0,0c-12.9,1.5-26,1.5-38.8,3.3c-6.4,0.9-12.7,2.3-18.7,4.5c-3,1.1-6,2.3-8.8,3.8c-2.8,1.4-5.6,3-7.9,5c-1.1,1-2.1,2.1-2.7,3.4
			c-0.6,1.2-0.8,2.6-0.8,4c0.2,2.8,1.6,5.6,3.5,8.1c1.8,2.5,4.1,4.7,6.5,6.8c2.4,2.1,5,4,7.6,5.9c5.2,3.6,11,6.3,17.1,8.3
			c6.1,2,12.4,3.5,18.7,4.8c25.4,5,51.5,6.5,77.3,4.5c12.9-1,25.7-2.9,38.3-5.9c6.3-1.5,12.5-3.3,18.4-6
			C616.4,828.4,621.8,824.9,626.5,820.5z"/>
	</g>
	<g>
		<path class="st20" d="M410.2,375.4c-2.5-2.3-4.3-5.3-5.4-8.7c-0.5-1.7-0.8-3.5-0.7-5.4c0-0.5,0-0.9,0.1-1.4c0-0.5,0.1-0.9,0.2-1.4
			c0.1-0.5,0.2-0.9,0.3-1.4c0.2-0.6,0.4-1.2,0.7-1.6c1.1-2,2.6-3.2,4.1-4.3c1.5-1.1,3-1.9,4.5-2.7c3.1-1.6,6.3-2.7,9.5-3.7
			c6.4-1.9,13.1-3.1,19.7-3.4c3.3-0.2,6.7-0.2,10,0c3.3,0.3,6.5,0.6,9.8,0.8c6.5,0.4,13,0.7,19.4,0.5c6.5-0.2,12.9-0.9,19.3-2.1
			c3.2-0.6,6.3-1.4,9.2-2.8c1.4-0.7,2.8-1.6,3.9-2.8c0.5-0.6,1-1.2,1.5-1.9c0.5-0.6,0.8-1.4,1.2-2.1c1.3-2.9,1.7-6.2,1.5-9.5
			c-0.2-3.2-0.9-6.5-2-9.5c1.1,3,1.9,6.2,2.2,9.5c0.3,3.3-0.1,6.6-1.3,9.7c-0.3,0.8-0.7,1.5-1.1,2.2c-0.4,0.7-0.9,1.4-1.5,2
			c-1.1,1.2-2.5,2.3-4,3c-2.9,1.6-6.2,2.4-9.3,3.2c-6.4,1.5-12.9,2.4-19.5,2.8c-6.5,0.4-13.1,0.4-19.6,0.3l-9.8-0.1
			c-3.2,0-6.3,0.3-9.5,0.7c-6.3,0.9-12.5,2.4-18.5,4.4c-3,1-5.9,2.2-8.7,3.5c-1.4,0.7-2.7,1.4-3.8,2.3c-1.2,0.8-2.2,1.7-2.8,2.6
			c-0.2,0.2-0.2,0.4-0.3,0.6c-0.1,0.2-0.2,0.6-0.3,0.9c-0.1,0.3-0.2,0.7-0.3,1c-0.1,0.3-0.2,0.7-0.2,1c-0.2,1.4-0.3,2.8-0.2,4.3
			c0.2,3,0.9,6.1,2,9.2L410.2,375.4z"/>
	</g>
	<g>
		<path class="st20" d="M536.1,253c0.6,3.8,0.2,7.7-1.1,11.3c-1.3,3.6-3.5,6.9-6.1,9.7c-2.6,2.9-5.7,5.2-8.9,7.2
			c-3.3,2-6.8,3.6-10.3,5c-3.6,1.4-7.2,2.5-11,3.4c-3.7,0.9-7.5,1.6-11.3,2.2c-7.6,1.1-15.2,1.5-22.8,1.7
			c-7.6,0.3-15.2,0.4-22.7,0.6c-1.8,0.1-3.7,0.1-5.2,0.5c-0.8,0.2-1.4,0.5-2.2,0.9c-0.7,0.4-1.4,0.9-2.1,1.4c-2.7,2-4.9,4.9-6.6,7.9
			c-3.4,6.2-4.7,13.6-4,20.7c0.2,1.8,0.5,3.5,0.9,5.3c0.4,1.7,1,3.4,1.7,5.1c1.4,3.3,3.4,6.4,5.7,9.3l-1.5,1.5
			c-2.9-2.6-5.4-5.7-7.3-9.2c-1.9-3.5-3-7.4-3.6-11.4c-0.5-4-0.4-8,0.4-11.9c0.7-3.9,2.1-7.7,4-11.3c1.9-3.5,4.5-6.8,7.9-9.2
			c0.9-0.6,1.7-1.2,2.7-1.7c0.9-0.5,2-0.9,3.1-1.2c2.2-0.5,4.2-0.5,6.1-0.5c7.6,0.1,15.1,0.1,22.7,0.1c7.5-0.1,15.1-0.2,22.5-1
			c3.7-0.4,7.4-1,11.1-1.8c3.7-0.8,7.3-1.7,10.8-3c3.5-1.2,7-2.7,10.2-4.5c3.2-1.8,6.3-4,8.9-6.7c2.6-2.7,4.9-5.7,6.3-9.1
			c1.4-3.4,2-7.3,1.6-11L536.1,253z"/>
	</g>
	<g>
		<path class="st20" d="M539.9,294.4l0.5-0.3l0.3-0.2l0.6-0.4c0.4-0.3,0.8-0.5,1.2-0.8c0.8-0.6,1.6-1.1,2.4-1.7
			c1.6-1.2,3.1-2.4,4.6-3.7c1.5-1.3,2.9-2.6,4.2-4.1c0.7-0.7,1.3-1.4,2-2.2c0.6-0.7,1.3-1.6,1.9-2.3c1.2-1.6,3-2.7,4.2-4.3
			c1.1-1.7,1.8-3.6,2.2-5.5c0.4-1.9,0.6-4,0.5-5.9c0-1-0.1-2-0.2-3c-0.1-0.5-0.1-1-0.2-1.5c-0.1-0.5-0.1-1-0.1-1.5
			c-0.1-0.5-0.2-1-0.4-1.5c-0.2-0.5-0.3-1-0.5-1.4c-0.4-0.9-0.8-1.9-1.3-2.7c-0.9-1.8-2.1-3.5-3.1-5.3c-2.1-3.5-4.5-6.5-7.3-9
			c-1.4-1.2-2.9-2.3-4.6-3.2c-1.6-0.8-3.6-1.5-5.4-2.3c-1.9-0.7-3.7-1.3-5.7-1.7c-1.9-0.5-4-0.9-6-1.5l-0.2-0.1l0,0
			c0.1,0,0.2,0.1,0.3,0l-0.3,0c-1.5-0.4-3-0.9-4.5-1.4l0.4-1.8c1.6,0.1,3.1,0.3,4.7,0.4l-0.3,0c0.2,0,0.4,0,0.6,0.1l-0.2,0
			c2,0.2,4.1,0.4,6.2,0.6c2.1,0.3,4.3,0.7,6.3,1.4c2,0.7,4,1.2,6.1,2.3c2,1,3.9,2.3,5.5,3.8c3.3,3,5.6,7,7.1,10.9
			c0.7,1.9,1.6,3.8,2.3,5.8c0.3,1,0.7,2,1,3c0.3,1,0.5,2.1,0.8,3.1c0.2,0.5,0.4,1,0.5,1.5c0.1,0.5,0.2,1,0.3,1.6
			c0.1,1.1,0.2,2.1,0.2,3.2c0,2.1-0.3,4.3-0.7,6.3c-0.5,2.1-1.2,4.1-2,6.1c-0.7,2-1.2,4.3-2.5,6.1c-0.6,0.9-1.2,1.7-1.9,2.5
			c-0.7,0.9-1.3,1.7-2,2.5c-1.4,1.6-3,3.1-4.6,4.5c-1.6,1.4-3.4,2.7-5.2,3.8c-0.9,0.6-1.8,1.1-2.8,1.6c-0.5,0.2-1,0.5-1.4,0.7
			l-0.7,0.3l-0.4,0.2l-0.2,0.1c0,0-0.1,0-0.1,0c0,0,0.1,0,0.1-0.1L539.9,294.4z"/>
	</g>
	<g>
		<path class="st20" d="M452.2,292.5c-0.9-2.7-1.2-5.8-0.9-8.8c0.4-3,1.5-5.9,3.1-8.4c1.6-2.5,3.8-4.6,6-6.3
			c1.1-0.8,2.2-1.7,3.5-2.4c1.2-0.7,2.5-1.5,3.8-1.9c1.4-0.5,2.8-0.7,4.2-0.9c1.4-0.2,2.8-0.4,4.1-0.6c2.7-0.4,5.4-0.7,8-1.1
			c2.6-0.4,5.2-0.9,7.1-2.3c1-0.6,1.7-1.6,2.3-2.6c0.2-0.2,0.3-0.5,0.5-0.8c0.1-0.3,0.2-0.6,0.3-0.9c0.1-0.3,0.1-0.6,0.1-0.9
			c0-0.3,0.1-0.6,0.1-0.9c0.1-2.5-0.7-5-1.8-7.2c-0.6-1.1-1.3-2.1-2.1-2.9c-0.8-0.8-1.7-1.4-2.8-1.8c-1.1-0.4-2.4-0.8-3.8-1.6
			c-1.4-0.7-2.7-1.8-3.7-3c-2-2.4-3.2-5.4-3.6-8.3c-0.5-2.9-0.4-5.8,0-8.6c0.2-1.4,0.4-2.7,0.6-4c0.2-1.4,0.6-2.7,0.9-4.1
			c0.8-2.7,2-5.4,3.9-7.7c1.9-2.2,4.5-3.9,7.3-4.6l0.6,1.7c-2.3,1.1-4.1,2.7-5.4,4.7c-1.3,2-2.1,4.3-2.6,6.8
			c-0.3,1.2-0.4,2.5-0.6,3.8c-0.2,1.3-0.3,2.6-0.4,3.9c-0.2,2.5-0.3,5,0.1,7.4c0.2,1.2,0.5,2.3,0.9,3.4c0.4,1,1,2,1.6,2.9
			c0.7,0.9,1.4,1.6,2.3,2.2c0.9,0.6,2.1,1.1,3.4,1.8c0.7,0.4,1.3,0.8,1.9,1.3c0.6,0.5,1.1,1.1,1.6,1.7c0.9,1.2,1.6,2.5,2.1,3.9
			c1,2.7,1.5,5.5,1.2,8.3c-0.1,0.7-0.2,1.4-0.4,2.1c-0.1,0.3-0.2,0.7-0.3,1c-0.1,0.4-0.2,0.7-0.3,1c-0.5,1.4-1.6,2.6-2.8,3.4
			c-1.2,0.9-2.6,1.3-4,1.7c-1.4,0.3-2.7,0.5-4,0.7c-2.7,0.3-5.3,0.6-7.8,1.3c-1.3,0.3-2.5,0.8-3.6,1.4c-1.1,0.6-2.2,1.4-3.2,2.1
			c-1.1,0.7-2.2,1.2-3.2,1.9c-1,0.7-2,1.5-3,2.3c-1.9,1.6-3.6,3.3-4.9,5.3c-0.7,1-1.2,2-1.6,3.1c-0.4,1.1-0.8,2.2-1,3.3
			c-0.4,2.3-0.3,4.7,0.1,7.1L452.2,292.5z"/>
	</g>
	<g>
		<path class="st20" d="M562.8,275l8.2-0.2l0,0c3.4-0.7,7-0.9,10.5-0.5c3.5,0.4,6.9,1.4,10.2,2.8c6.5,2.9,12.1,7.6,16.1,13.5
			c4,5.9,6.2,13.1,6,20.4c-0.1,3.6-0.8,7.2-1.8,10.6c-1,3.4-2.3,6.7-3.6,10c-0.7,1.6-1.4,3.3-2.5,4.9c-1.1,1.6-2.4,3.1-4,4.1
			c-3.2,2.3-7.2,3.2-10.8,3.2c-3.7,0.1-7.3-0.6-10.7-1.3c-1.7-0.3-3.4-0.6-5-0.8c-1.7-0.2-3.3-0.3-5-0.3c-6.7,0-13.3,1.3-19.7,3.5
			c-3.2,1.1-6.3,2.4-9.4,3.9c-3.1,1.5-6.1,3.1-9,4.8l-2-3.4c6-3.7,12.3-7,19.1-9.3c6.7-2.3,13.9-3.8,21.1-3.6c1.8,0,3.6,0.2,5.4,0.4
			c1.8,0.2,3.6,0.6,5.3,0.9c3.4,0.7,6.7,1.3,9.9,1.4c3.2,0.1,6.4-0.6,8.9-2.3c2.6-1.6,4.2-4.4,5.6-7.5c1.3-3.1,2.7-6.3,3.8-9.5
			c1-3.2,1.7-6.5,1.9-9.9c0.4-6.7-1.4-13.4-5-19.2c-3.6-5.7-8.9-10.5-15-13.4c-3.1-1.5-6.4-2.6-9.7-3.1c-3.4-0.5-6.9-0.5-10.3,0l0,0
			l0,0L562.8,275z"/>
	</g>
	<g>
		<path class="st20" d="M634.1,369.5c0.1-4.3-0.3-8.6-1.4-12.8c-1.1-4.1-2.9-8-5.3-11.5c-1.3-1.7-2.7-3.2-4.2-4.6
			c-1.6-1.3-3.3-2.5-5.1-3.4c-3.7-1.8-7.8-2.6-12-2.5l-0.1-3.9c4.7,0,9.5,1,13.6,3.3c2.1,1.1,4,2.5,5.7,4.1c1.7,1.6,3.2,3.4,4.5,5.3
			c2.6,3.9,4.4,8.1,5.4,12.6c1,4.4,1.4,9,1.1,13.5L634.1,369.5z"/>
	</g>
	<g>
		<path class="st20" d="M559.7,205c-1.2,3.4-3.2,6.6-5.5,9.4c-1.1,1.4-2.5,2.7-3.8,3.9c-1.4,1.2-2.8,2.3-4.4,3.3
			c-3,2-6.4,3.6-9.9,4.6c-3.5,1.1-7.1,1.6-10.7,1.8l-0.2,0l-0.2-0.1c-2.4-0.5-4.8-1-7.2-1.7c-2.4-0.6-4.8-1.4-7.1-2.2
			c-4.7-1.6-9.3-3.5-13.7-6l-0.2-0.1l-0.2-0.2c-4-3.9-7-8.9-8.5-14.2l0,0l-0.4-1.3l0.7-0.7c1.3-1.2,2.7-1.9,4-2.4l0,0l0.8,2.1
			c-1,0.5-1.9,1.1-2.7,1.8l0,0l-2.2,1.9l-0.9-3.6c-0.7-2.8-1-5.7-0.8-8.6c0.1-2.9,0.6-5.7,1.6-8.4c0.9-2.7,2.2-5.3,3.8-7.6
			c1.5-2.3,3.2-4.6,5.1-6.7c1.9-2,4-4,6.6-5.5c1.3-0.7,2.7-1.3,4.3-1.6c1.5-0.3,3.4-0.2,4.7,0.2c2.8,0.7,5.4,1.6,8,2.6
			c1.3,0.5,2.6,1.2,3.8,1.8c0.6,0.3,1.1,0.6,1.6,0.7c0.5,0.2,0.7,0.2,1,0.2c0.7-0.1,1-0.2,1.8-1.2c0.7-0.9,1.8-2.4,3.4-3.3
			c1.5-0.9,3.4-1.3,5.1-1.2c1.7,0.1,3.1,0.5,4.5,1c1.4,0.5,2.6,1,3.9,1.6c1.3,0.6,2.5,1.4,3.7,2.2c2.3,1.6,4.5,3.6,6.3,5.7
			c0.9,1.1,1.7,2.2,2.5,3.4c0.4,0.6,0.8,1.3,1,1.9c0.3,0.6,0.6,1.3,0.9,1.9c1.1,2.6,1.6,5.4,1.9,8.2c0.2,2.8,0.1,5.6-0.4,8.3
			l-0.8,4.1C560.4,202.3,560.1,203.6,559.7,205z M557.3,204c0.5-1.2,1.1-2.4,1.5-3.6c0.5-1.2,0.7-2.5,0.9-3.8c0.3-2.6,0.4-5.2,0-7.8
			c-0.4-2.6-1.1-5.1-2.2-7.4c-0.3-0.6-0.6-1.1-0.9-1.7c-0.3-0.6-0.6-1.1-1-1.6c-0.8-1-1.6-2-2.5-2.9c-1.8-1.9-3.8-3.5-5.9-4.8
			c-1.1-0.6-2.2-1.2-3.4-1.7c-1.1-0.4-2.4-0.9-3.6-1.3c-1.2-0.4-2.3-0.6-3.4-0.6c-1,0-1.9,0.2-2.6,0.7c-0.7,0.5-1.3,1.2-2.2,2.4
			c-0.5,0.6-1.1,1.3-2,1.9c-0.9,0.6-1.9,0.9-3,1c-1.1,0.1-2.1-0.2-2.9-0.5c-0.8-0.3-1.4-0.7-2.1-1c-1.2-0.7-2.3-1.2-3.5-1.8
			c-2.3-1.1-4.8-2.2-7.1-2.9c-0.6-0.2-1.2-0.3-1.7-0.3c-0.3,0-0.5-0.1-0.8-0.1l-0.8,0c-1.1,0.2-2.2,0.5-3.3,1
			c-1.1,0.5-2.1,1.2-3.1,2c-1,0.8-1.9,1.7-2.8,2.6c-1.8,1.9-3.4,4-4.6,6.2c-1.2,2.3-2,4.7-2.5,7.2c-0.5,2.5-0.7,5-0.7,7.5
			c0,2.5,0.2,5,0.7,7.5l-3.1-1.7l0,0c1.4-0.1,2.7,0,4,0.3l2.1,0.4l-1.2,1.7l0,0c-0.8,1.1-1.4,2.2-1.6,3.2l0.3-2l0,0
			c1.3,4.6,3.7,9,7.1,12.4l-0.4-0.3c4,2.3,8.4,4.2,12.9,5.9c2.2,0.8,4.5,1.6,6.8,2.2c2.3,0.7,4.6,1.2,6.9,1.8l-0.4,0
			c3.3,0,6.7-0.5,9.9-1.4c3.2-0.9,6.3-2.2,9.1-4c1.4-0.9,2.8-1.9,4.1-2.9c1.3-1.1,2.5-2.2,3.6-3.5C554.2,209.9,556,207.1,557.3,204z
			"/>
	</g>
	<g>
		<path class="st20" d="M565.5,117c-3.5,0.4-7,1.1-10.4,2.1c-3.4,1-6.6,2.5-9.7,4.2c-6.1,3.4-11.3,8.3-15.2,14
			c-3.8,5.8-6,12.4-6.4,19.2c-0.4,6.8,0.8,13.7,3.3,19.9l-5.4,2.1c-2.5-7.2-3.4-14.9-2.5-22.4c0.9-7.5,3.8-14.7,8.2-20.7
			c4.5-6,10.3-10.8,16.9-14c3.3-1.6,6.7-2.9,10.3-3.8c3.5-0.9,7.1-1.4,10.8-1.6L565.5,117z"/>
	</g>
	<path class="st22" d="M517.5,171.5c0.6,0.2,3.7,1.9,5,4c0.7,1.2,0.9,2.3,1,3c0.7-0.9,1.7-2,3-3c1.1-0.9,3.1-1.5,4-2"/>
	<path class="st23" d="M497.3,670.6c-0.5,2-1.1,3.3-1.8,3.9c-2,2-7-1-9-5c1.2,0.8,2.2,1.5,3,2c2.6,1.7,3.2,2,4,2c1.2-0.1,2-0.9,3-2
		C496.7,671.3,497,670.9,497.3,670.6c5-18.5,2.2-94.8-24.8-235.1c-0.1-0.2-0.2-0.5-0.3-0.7c-3.1-7.4-11.1-10.5-16.7-8.3
		c-6.3,2.5-9.9,12.1-5,20c0-0.5,0-1.1,0-2c0.1-5.9,0.2-10.1,3-13c2.5-2.6,6-2.9,7-3c1.2-0.1,3.5-0.3,6,1c2.4,1.3,1,0,4,3l1.7,2.3"/>
	<path class="st24" d="M554.3,673.5c-0.2,0.7-0.5,1.4-0.8,2c-1.4,2.7-6.1,4.6-9,3c-2.8-1.5-2-1-3-5c0.4,0.5,1,1.3,2,2
		c0,0,2.5,1.7,6,1C551.3,676.2,552.9,675.1,554.3,673.5c1.2-3.8,1.2-8.2,1.2-9c0-33.2,8.6-65.9,11-99c1.7-23.5,7.2-98.2,30-126
		c2.2-2.6,11-12.8,8-18c-1.9-3.3-7.9-3.4-11-3c-12.9,1.8-18.6,18.7-19,20"/>
	<path class="st23" d="M521.4,670.8c-0.9,1.8-1.7,3-2.5,3.5c-2.3,1.6-6.7-2.2-8-6.5c1,1,1.9,1.9,2.6,2.5c2.2,2.1,2.8,2.6,3.6,2.7
		c1.2,0.1,2.1-0.5,3.3-1.4C520.8,671.4,521.1,671.2,521.4,670.8c8.2-17.3,19.1-92.9,17.6-235.7c0-0.3-0.1-0.5-0.2-0.8
		c-1.8-7.8-9.1-12.3-15-11.1c-6.6,1.4-11.9,10.1-8.5,18.8c0.1-0.4,0.2-1.1,0.4-2c1.2-5.8,2-9.9,5.3-12.3c2.9-2.1,6.4-1.8,7.4-1.7
		c1.2,0.1,3.5,0.3,5.7,2.1c2.1,1.7,1,0.2,3.4,3.7l1.3,2.5"/>
	<path class="st23" d="M574.7,437.9c0.8-1.4,2.1-3.3,3.8-5.4c3.2-3.9,6.5-8,12-10c2.1-0.7,6.5-2.3,10,0c1.7,1.2,2.6,2.9,3,4l0,3.1"
		/>
</g>
</svg>
